<svg version="1.1" xmlns="http://www.w3.org/2000/svg" viewBox="0 0 1892 1808" width="1892" height="1808">
  <defs><linearGradient id="_6geu6c0" gradientUnits="userSpaceOnUse" x1="700.206" y1="1525.02" x2="770.811" y2="1538.96"><stop offset="0" stop-color="#580dab"/><stop offset="1" stop-color="#8425ca"/></linearGradient><linearGradient id="_6geu6c1" gradientUnits="userSpaceOnUse" x1="951.877" y1="1145.23" x2="948.948" y2="1094.1"><stop offset="0" stop-color="#fab072"/><stop offset="1" stop-color="#fdd593"/></linearGradient><linearGradient id="_6geu6c2" gradientUnits="userSpaceOnUse" x1="944.418" y1="1100.34" x2="949.48" y2="993.643"><stop offset="0" stop-color="#fcd38a"/><stop offset="1" stop-color="#fdfcdc"/></linearGradient><linearGradient id="_6geu6c3" gradientUnits="userSpaceOnUse" x1="614.67" y1="1667.42" x2="991.654" y2="1659.44"><stop offset="0" stop-color="#8c0a77"/><stop offset="1" stop-color="#ff4f76"/></linearGradient><linearGradient id="_6geu6c4" gradientUnits="userSpaceOnUse" x1="916.275" y1="1329.96" x2="914.343" y2="1346.26"><stop offset="0" stop-color="#b844cb"/><stop offset="1" stop-color="#ce65dc"/></linearGradient><linearGradient id="_6geu6c5" gradientUnits="userSpaceOnUse" x1="865.399" y1="1651.87" x2="908.222" y2="1584"><stop offset="0" stop-color="#8d22c4"/><stop offset="1" stop-color="#cb65e9"/></linearGradient><linearGradient id="_6geu6c6" gradientUnits="userSpaceOnUse" x1="1117.34" y1="1392.29" x2="910.439" y2="1656.02"><stop offset="0" stop-color="#ff5f6f"/><stop offset="1" stop-color="#a91084"/></linearGradient><linearGradient id="_6geu6c7" gradientUnits="userSpaceOnUse" x1="289.462" y1="913.748" x2="247.122" y2="901.69"><stop offset="0" stop-color="#7d29e6"/><stop offset="1" stop-color="#ce66fe"/></linearGradient><linearGradient id="_6geu6c8" gradientUnits="userSpaceOnUse" x1="267.884" y1="942.917" x2="101.483" y2="873.809"><stop offset="0" stop-color="#870079"/><stop offset="1" stop-color="#ff5a8d"/></linearGradient><linearGradient id="_6geu6c9" gradientUnits="userSpaceOnUse" x1="1266.22" y1="1220.93" x2="1288.78" y2="1205.74"><stop offset="0" stop-color="#e98fc6"/><stop offset="1" stop-color="#f8b5ea"/></linearGradient><linearGradient id="_6geu6c10" gradientUnits="userSpaceOnUse" x1="921.045" y1="1248.38" x2="931.765" y2="1225.84"><stop offset="0" stop-color="#f6a888"/><stop offset="1" stop-color="#fcc193"/></linearGradient><linearGradient id="_6geu6c11" gradientUnits="userSpaceOnUse" x1="973.088" y1="1249.25" x2="1002.27" y2="1130.56"><stop offset="0" stop-color="#fcc283"/><stop offset="1" stop-color="#fdffd0"/></linearGradient><linearGradient id="_6geu6c12" gradientUnits="userSpaceOnUse" x1="778.924" y1="1266.84" x2="762.767" y2="1273.92"><stop offset="0" stop-color="#b85fef"/><stop offset="1" stop-color="#9335df"/></linearGradient><linearGradient id="_6geu6c13" gradientUnits="userSpaceOnUse" x1="1262.22" y1="1135.45" x2="878.025" y2="1392.95"><stop offset="0" stop-color="#ffe2e4"/><stop offset="1" stop-color="#e7b0f0"/></linearGradient><linearGradient id="_6geu6c14" gradientUnits="userSpaceOnUse" x1="1123.98" y1="1261.96" x2="1159.08" y2="1160.64"><stop offset="0" stop-color="#fbb976"/><stop offset="1" stop-color="#fefcc1"/></linearGradient><linearGradient id="_6geu6c15" gradientUnits="userSpaceOnUse" x1="1068.69" y1="1189.73" x2="1084.9" y2="1049.1"><stop offset="0" stop-color="#fbbb69"/><stop offset="1" stop-color="#feffd7"/></linearGradient><linearGradient id="_6geu6c16" gradientUnits="userSpaceOnUse" x1="1194.06" y1="1205.61" x2="1237.22" y2="1110.54"><stop offset="0" stop-color="#fcc57a"/><stop offset="1" stop-color="#fdfed5"/></linearGradient><linearGradient id="_6geu6c17" gradientUnits="userSpaceOnUse" x1="1016.33" y1="1113.49" x2="1034.16" y2="1292.6"><stop offset="0" stop-color="#f2d0f9"/><stop offset="1" stop-color="#fefff9"/></linearGradient><linearGradient id="_6geu6c18" gradientUnits="userSpaceOnUse" x1="1358.27" y1="666.626" x2="1313.18" y2="690.994"><stop offset="0" stop-color="#ffc7c1"/><stop offset="1" stop-color="#ed82d3"/></linearGradient><linearGradient id="_6geu6c19" gradientUnits="userSpaceOnUse" x1="1133.4" y1="295.947" x2="712.765" y2="564.868"><stop offset="0" stop-color="#fed7d1"/><stop offset="1" stop-color="#ffb2fd"/></linearGradient><linearGradient id="_6geu6c20" gradientUnits="userSpaceOnUse" x1="1088.27" y1="399.519" x2="885.254" y2="706.791"><stop offset="0" stop-color="#e25dde"/><stop offset="1" stop-color="#862af7"/></linearGradient><linearGradient id="_6geu6c21" gradientUnits="userSpaceOnUse" x1="1492.77" y1="1275.54" x2="1606.1" y2="1265.62"><stop offset="0" stop-color="#4d005c"/><stop offset="1" stop-color="#8a0a72"/></linearGradient><linearGradient id="_6geu6c22" gradientUnits="userSpaceOnUse" x1="1667.49" y1="1123.6" x2="1700.14" y2="1057.74"><stop offset="0" stop-color="#fa5369"/><stop offset="1" stop-color="#ffb08a"/></linearGradient><linearGradient id="_6geu6c23" gradientUnits="userSpaceOnUse" x1="1249.97" y1="1222.67" x2="1439.65" y2="927.992"><stop offset="0" stop-color="#3412c9"/><stop offset="1" stop-color="#b245ef"/></linearGradient><linearGradient id="_6geu6c24" gradientUnits="userSpaceOnUse" x1="339.644" y1="1343.16" x2="407.849" y2="1143.39"><stop offset="0" stop-color="#f51c66"/><stop offset="1" stop-color="#ffab92"/></linearGradient><linearGradient id="_6geu6c25" gradientUnits="userSpaceOnUse" x1="493.909" y1="1321.42" x2="263.595" y2="1575.01"><stop offset="0" stop-color="#f33a68"/><stop offset="1" stop-color="#8d0f9c"/></linearGradient><linearGradient id="_6geu6c26" gradientUnits="userSpaceOnUse" x1="1550.09" y1="1439.19" x2="1618.17" y2="1343.83"><stop offset="0" stop-color="#6b23e3"/><stop offset="1" stop-color="#dd5beb"/></linearGradient><linearGradient id="_6geu6c27" gradientUnits="userSpaceOnUse" x1="1177.01" y1="1540.6" x2="1647.33" y2="1429.76"><stop offset="0" stop-color="#1f0891"/><stop offset="1" stop-color="#782eef"/></linearGradient><linearGradient id="_6geu6c28" gradientUnits="userSpaceOnUse" x1="1416.84" y1="746.496" x2="1531.19" y2="585.439"><stop offset="0" stop-color="#fe6170"/><stop offset="1" stop-color="#fd8d7c"/></linearGradient><linearGradient id="_6geu6c29" gradientUnits="userSpaceOnUse" x1="1405.64" y1="822.377" x2="1578.41" y2="725.578"><stop offset="0" stop-color="#c31268"/><stop offset="1" stop-color="#ff766c"/></linearGradient><linearGradient id="_6geu6c30" gradientUnits="userSpaceOnUse" x1="1740.88" y1="519.317" x2="1247.56" y2="666.234"><stop offset="0" stop-color="#fcc966"/><stop offset="1" stop-color="#f95fac"/></linearGradient></defs>
  <path transform="translate(0,0)" d="M 814.497 130.361 L 1115.66 130.396 C 1266.94 128.441 1424.99 134.248 1552.25 226.555 C 1592.36 255.644 1621.81 283.206 1653.39 321.596 C 1662.88 333.13 1670.04 347.687 1678.27 360.179 C 1738.69 450.443 1754.01 569.173 1755.36 676.26 L 1755.97 875.876 C 1755.05 939.714 1754.84 1003.56 1755.32 1067.4 L 1755.45 1078.57 C 1754.96 1123.1 1755.91 1169.11 1753.92 1213.37 C 1750.7 1274.52 1743.14 1337.65 1724.41 1396.07 C 1722.87 1400.87 1717.41 1417.43 1715.44 1420.61 C 1711.61 1434.28 1703.2 1450.45 1695.93 1462.78 C 1686.71 1479.9 1670.42 1511.8 1658.32 1525.78 C 1644.56 1547.83 1621.48 1570.94 1602.98 1589.16 C 1545.77 1645.51 1463.93 1688.97 1385.82 1707.02 C 1331.19 1719.91 1275.25 1726.37 1219.12 1726.26 C 1212.87 1726.18 1206.62 1726.15 1200.36 1726.17 C 1194.69 1726.39 1187.48 1726.85 1181.93 1726.74 C 1164.55 1725.81 1134.74 1726.89 1116.53 1726.94 C 1088.74 1727.2 1060.96 1726.78 1033.14 1727.17 C 1017.66 1727.84 1001.07 1727.22 985.413 1727.13 C 963.285 1727.01 940.721 1727.41 918.649 1726.88 C 821.907 1728.35 709.668 1729.14 613.768 1724.17 C 451.931 1712.25 317.841 1657.99 219.597 1524.55 C 146.634 1425.46 126.75 1324.97 122.899 1205 C 122.118 1181.79 121.903 1160.45 121.839 1137.15 C 121.184 1126.78 121.569 1116.84 121.424 1106.5 C 120.08 1010.97 122.918 915.315 121.454 819.816 C 121.14 805.892 120.626 789.738 121.776 775.992 C 121.222 769.74 121.196 762.735 121.164 756.561 C 120.437 617.707 124.753 475.621 204.598 356.047 C 211.699 345.413 226.126 321.568 235.982 313.823 C 241.526 305.647 266.639 279.189 274.462 270.811 C 286.528 257.89 311.324 241.122 325.911 230.454 C 469.371 125.54 644.307 129.864 814.497 130.361 z" fill="#692CE1" />
  <path transform="translate(0,0)" d="M 814.497 130.361 L 1115.66 130.396 C 1266.94 128.441 1424.99 134.248 1552.25 226.555 C 1592.36 255.644 1621.81 283.206 1653.39 321.596 C 1662.88 333.13 1670.04 347.687 1678.27 360.179 C 1738.69 450.443 1754.01 569.173 1755.36 676.26 L 1755.97 875.876 C 1755.05 939.714 1754.84 1003.56 1755.32 1067.4 C 1749.13 1066.29 1737.24 1062.08 1730.47 1060.28 C 1716.95 1056.67 1706.18 1054.99 1692.19 1053.99 C 1676.65 1050.05 1659.05 1053.08 1643.61 1053.14 L 1642.6 1053.13 C 1627.88 1051.31 1600.48 1059.9 1585.91 1064.25 C 1568.91 985.82 1520.82 924.138 1458.15 875.661 C 1446.06 866.31 1431.15 859.014 1419.12 850.043 L 1418.24 849.379 C 1417.58 837.701 1402.05 799.267 1397.28 786.024 C 1389.04 763.099 1380.98 738.313 1372.54 715.472 C 1358.2 677.249 1342.47 639.559 1325.39 602.476 C 1318.03 586.87 1307.66 569.479 1299.5 553.919 C 1294.5 546.994 1290.74 538.026 1285.64 531.548 C 1279.84 520.717 1270.02 506.244 1263.17 495.602 C 1263.68 491.498 1261.07 493.804 1261.12 488.678 C 1268.84 483.824 1313.85 484.963 1325.72 484.751 C 1304.35 483.13 1278.64 484.235 1257.42 486.857 C 1252.03 481.793 1241.94 468.279 1236.7 461.956 C 1226.28 449.431 1215.25 437.426 1203.65 425.984 C 1188.24 410.758 1170.88 396.741 1154.1 383.044 C 1148.17 378.204 1137.6 371.861 1132.8 367.611 L 1131.84 366.749 C 1119.96 360.558 1104.48 349.822 1091.63 342.681 C 1057.36 323.938 1021.13 309.035 983.599 298.242 C 966.134 293.293 948.475 289.056 930.666 285.543 C 922.893 284.051 907.838 282.641 901.122 280.203 C 906.605 276.577 920.869 283.485 924.46 282.346 L 923.352 278.571 C 925.029 271.882 925.094 264.95 927.085 258.762 C 933.064 240.183 941.053 228.696 937.314 208.202 C 932.72 183.017 907.353 164.328 884.395 156.409 C 874.041 152.292 857.9 149.162 849.155 142.8 C 840.988 136.859 824.725 137.87 818.511 133.322 C 835.181 132.247 862.332 134.307 876.813 131.665 C 864.244 129.867 830.242 131.121 814.497 130.361 z" fill="url(#_6geu6c30)" />
  <path transform="translate(0,0)" d="M 1299.5 553.919 C 1300.19 545.583 1285.28 532.549 1287.67 526.875 C 1286.07 526.95 1309.07 530.525 1310.77 531.034 C 1328.87 536.445 1353.49 539.12 1370.74 546.542 C 1385.87 553.051 1396.22 560.001 1410.34 567.537 C 1445.42 585.052 1468.97 600.72 1496.08 629.243 C 1522.69 657.236 1555.1 681.545 1573.4 717.292 C 1580.92 733.929 1585.55 752.122 1591.7 769.281 C 1597.45 786.119 1605.15 802.959 1608.91 820.394 C 1610.73 828.784 1612.27 839.166 1613.32 847.759 C 1615.32 864.061 1621.09 877.404 1625.48 893.059 C 1628.92 905.317 1626.89 928.677 1631.89 939.627 C 1633.98 962.058 1635.41 985.513 1639.27 1007.62 C 1641.53 1020.53 1651.73 1038.66 1648.96 1050.46 C 1647.1 1052.32 1645.2 1052.47 1642.6 1053.13 C 1627.88 1051.31 1600.48 1059.9 1585.91 1064.25 C 1568.91 985.82 1520.82 924.138 1458.15 875.661 C 1446.06 866.31 1431.15 859.014 1419.12 850.043 L 1418.24 849.379 C 1417.58 837.701 1402.05 799.267 1397.28 786.024 C 1389.04 763.099 1380.98 738.313 1372.54 715.472 C 1358.2 677.249 1342.47 639.559 1325.39 602.476 C 1318.03 586.87 1307.66 569.479 1299.5 553.919 z" fill="url(#_6geu6c29)" />
  <path transform="translate(0,0)" d="M 814.497 130.361 L 1115.66 130.396 C 1111.57 132.91 1086.08 130.353 1084.01 131.898 C 1099.06 133.729 1194.02 132.096 1197.46 134.139 L 1196.42 136.326 C 1199.84 139.025 1205.25 141.018 1206.69 143.513 C 1206.48 150.28 1206.53 150.016 1212.93 153.308 C 1223.42 174.73 1236.9 180.676 1236.53 205.982 C 1251.4 227.031 1218.75 276.974 1210.57 298.044 C 1207.62 305.64 1205.02 313.426 1202.35 321.155 C 1195.67 338.763 1186.83 352.147 1174.92 366.394 C 1172.94 368.762 1170.86 384.428 1167.79 388.355 C 1159.82 388.288 1140.42 366.853 1131.84 366.749 C 1119.96 360.558 1104.48 349.822 1091.63 342.681 C 1057.36 323.938 1021.13 309.035 983.599 298.242 C 966.134 293.293 948.475 289.056 930.666 285.543 C 922.893 284.051 907.838 282.641 901.122 280.203 C 906.605 276.577 920.869 283.485 924.46 282.346 L 923.352 278.571 C 925.029 271.882 925.094 264.95 927.085 258.762 C 933.064 240.183 941.053 228.696 937.314 208.202 C 932.72 183.017 907.353 164.328 884.395 156.409 C 874.041 152.292 857.9 149.162 849.155 142.8 C 840.988 136.859 824.725 137.87 818.511 133.322 C 835.181 132.247 862.332 134.307 876.813 131.665 C 864.244 129.867 830.242 131.121 814.497 130.361 z" fill="#E35FD8" />
  <path transform="translate(0,0)" d="M 1263.17 495.602 C 1266.96 492.398 1270.42 492.903 1275.46 492.817 L 1276.66 493.892 L 1275.92 495.093 L 1270.4 495.84 L 1270.58 496.611 C 1285.59 503.193 1318.92 498.893 1336.48 500.94 C 1363.33 504.071 1391.49 504.602 1416.88 515.151 C 1420.75 522.634 1425.62 522.749 1432.57 526.465 C 1442.77 531.912 1458.68 537.879 1468.29 543.52 C 1517.74 572.544 1555.71 603.116 1576.11 658.696 C 1580 669.272 1585.42 690.874 1590.31 700.12 L 1591.49 700.136 L 1591.01 700.549 C 1592.43 697.003 1589.99 688.71 1588.9 684.988 L 1589.76 682.034 L 1591.2 681.703 C 1596.94 691.696 1599.56 718.151 1601.84 729.931 C 1603.51 738.51 1607.06 746.848 1609 755.476 C 1620.52 806.917 1625.3 858.985 1629.64 911.398 C 1630.39 920.453 1631.81 930.562 1631.89 939.627 C 1626.89 928.677 1628.92 905.317 1625.48 893.059 C 1621.09 877.404 1615.32 864.061 1613.32 847.759 C 1612.27 839.166 1610.73 828.784 1608.91 820.394 C 1605.15 802.959 1597.45 786.119 1591.7 769.281 C 1585.55 752.122 1580.92 733.929 1573.4 717.292 C 1555.1 681.545 1522.69 657.236 1496.08 629.243 C 1468.97 600.72 1445.42 585.052 1410.34 567.537 C 1396.22 560.001 1385.87 553.051 1370.74 546.542 C 1353.49 539.12 1328.87 536.445 1310.77 531.034 C 1309.07 530.525 1286.07 526.95 1287.67 526.875 C 1285.28 532.549 1300.19 545.583 1299.5 553.919 C 1294.5 546.994 1290.74 538.026 1285.64 531.548 C 1279.84 520.717 1270.02 506.244 1263.17 495.602 z" fill="url(#_6geu6c28)" />
  <path transform="translate(0,0)" d="M 1333.45 1295.17 L 1334.88 1296.04 L 1336.46 1290.58 C 1345.42 1291.45 1375.66 1307.3 1389.46 1307.39 C 1409.67 1312.32 1432.49 1310.2 1452.88 1308.48 C 1465.07 1307.45 1480.37 1297.46 1489.17 1300.46 C 1492.99 1303.73 1492.96 1306.36 1492.91 1311.24 C 1485.84 1317.28 1469.53 1319.24 1460.3 1324.32 L 1460.88 1325.13 L 1463.42 1324.51 C 1474.01 1320.77 1485.8 1317.61 1496.68 1314.52 C 1544.03 1307.92 1585.48 1316.98 1624.24 1346.05 C 1653.99 1368.36 1675.8 1399.62 1686.47 1435.24 C 1688.47 1441.9 1692.06 1458.11 1695.93 1462.78 C 1686.71 1479.9 1670.42 1511.8 1658.32 1525.78 C 1644.56 1547.83 1621.48 1570.94 1602.98 1589.16 C 1545.77 1645.51 1463.93 1688.97 1385.82 1707.02 C 1331.19 1719.91 1275.25 1726.37 1219.12 1726.26 C 1212.87 1726.18 1206.62 1726.15 1200.36 1726.17 C 1194.69 1726.39 1187.48 1726.85 1181.93 1726.74 C 1164.55 1725.81 1134.74 1726.89 1116.53 1726.94 C 1088.74 1727.2 1060.96 1726.78 1033.14 1727.17 C 1030.36 1714.62 1042.69 1646.18 1045.24 1629.01 L 1059.5 1531.54 C 1062.73 1510.03 1066.09 1488.54 1069.59 1467.08 C 1074.45 1432.36 1078.3 1397.91 1083.5 1363.16 L 1083.71 1360.73 L 1084.1 1359.65 C 1084.23 1355.96 1085.86 1346.9 1086.48 1342.85 C 1123.2 1342.88 1152.83 1342.42 1189.76 1339.21 C 1211.28 1338.07 1250.23 1331.76 1270.84 1326.16 C 1287.78 1321.99 1302.4 1314.45 1318.66 1308.42 C 1323.55 1305.14 1329.72 1299.71 1333.45 1295.17 z" fill="url(#_6geu6c27)" />
  <path transform="translate(0,0)" d="M 1189.76 1339.21 C 1211.28 1338.07 1250.23 1331.76 1270.84 1326.16 C 1270.04 1329.91 1268.35 1336.78 1268.02 1340.35 C 1258.97 1388.1 1247.35 1436.29 1237.95 1484.03 C 1235.32 1497.35 1227.03 1529.06 1225.65 1540.86 C 1221.04 1554.46 1214.7 1586.3 1211 1601.7 L 1190.98 1684.73 C 1189.21 1692.07 1181.71 1721.17 1181.93 1726.74 C 1164.55 1725.81 1134.74 1726.89 1116.53 1726.94 C 1088.74 1727.2 1060.96 1726.78 1033.14 1727.17 C 1030.36 1714.62 1042.69 1646.18 1045.24 1629.01 L 1059.5 1531.54 C 1062.73 1510.03 1066.09 1488.54 1069.59 1467.08 C 1074.45 1432.36 1078.3 1397.91 1083.5 1363.16 L 1083.71 1360.73 L 1084.1 1359.65 C 1084.23 1355.96 1085.86 1346.9 1086.48 1342.85 C 1123.2 1342.88 1152.83 1342.42 1189.76 1339.21 z" fill="#CC2D75" />
  <path transform="translate(0,0)" d="M 1059.5 1531.54 L 1060.72 1535.8 C 1061.62 1532.68 1061.22 1533.42 1061.49 1530.86 C 1063.28 1513.7 1068.98 1490.68 1069.73 1473.8 L 1071.33 1472.55 C 1077.96 1476.7 1082.7 1480.93 1088.92 1485.23 C 1107.96 1498.39 1122.37 1499.57 1144.41 1503.41 C 1148.69 1504.15 1156.7 1505.92 1157.68 1510.61 C 1159.11 1517.44 1147.96 1551.28 1151.27 1554.8 C 1149.09 1571.29 1144.12 1592.93 1140.54 1609.46 L 1125.31 1680.86 C 1123.33 1690.23 1116.87 1718.42 1116.53 1726.94 C 1088.74 1727.2 1060.96 1726.78 1033.14 1727.17 C 1030.36 1714.62 1042.69 1646.18 1045.24 1629.01 L 1059.5 1531.54 z" fill="#D77EE4" />
  <path transform="translate(0,0)" d="M 1086.48 1342.85 C 1123.2 1342.88 1152.83 1342.42 1189.76 1339.21 C 1189.69 1340.83 1189.72 1343.8 1189.3 1345.23 C 1189.05 1349.94 1189.12 1354.3 1187.65 1358.76 C 1179.12 1408.65 1169.98 1458.44 1160.23 1508.1 C 1158.61 1516.51 1153.38 1549.45 1151.27 1554.8 C 1147.96 1551.28 1159.11 1517.44 1157.68 1510.61 C 1156.7 1505.92 1148.69 1504.15 1144.41 1503.41 C 1122.37 1499.57 1107.96 1498.39 1088.92 1485.23 C 1082.7 1480.93 1077.96 1476.7 1071.33 1472.55 L 1069.73 1473.8 C 1068.98 1490.68 1063.28 1513.7 1061.49 1530.86 C 1061.22 1533.42 1061.62 1532.68 1060.72 1535.8 L 1059.5 1531.54 C 1062.73 1510.03 1066.09 1488.54 1069.59 1467.08 C 1074.45 1432.36 1078.3 1397.91 1083.5 1363.16 L 1083.71 1360.73 L 1084.1 1359.65 C 1084.23 1355.96 1085.86 1346.9 1086.48 1342.85 z" fill="#F5B2DE" />
  <path transform="translate(0,0)" d="M 1086.48 1342.85 C 1123.2 1342.88 1152.83 1342.42 1189.76 1339.21 C 1189.69 1340.83 1189.72 1343.8 1189.3 1345.23 C 1189.05 1349.94 1189.12 1354.3 1187.65 1358.76 C 1183.34 1355.88 1088.84 1360.46 1083.5 1363.16 L 1083.71 1360.73 L 1084.1 1359.65 C 1084.23 1355.96 1085.86 1346.9 1086.48 1342.85 z" fill="#D77EE4" />
  <path transform="translate(0,0)" d="M 1086.48 1342.85 C 1123.2 1342.88 1152.83 1342.42 1189.76 1339.21 C 1189.69 1340.83 1189.72 1343.8 1189.3 1345.23 C 1187.14 1344.4 1150.41 1348.39 1144.14 1347.71 C 1141.11 1347.38 1122.6 1352.04 1117.8 1353.03 C 1109.31 1354.79 1090.44 1354.87 1084.1 1359.65 C 1084.23 1355.96 1085.86 1346.9 1086.48 1342.85 z" fill="#E35FD8" />
  <path transform="translate(0,0)" d="M 1496.68 1314.52 C 1544.03 1307.92 1585.48 1316.98 1624.24 1346.05 C 1653.99 1368.36 1675.8 1399.62 1686.47 1435.24 C 1688.47 1441.9 1692.06 1458.11 1695.93 1462.78 C 1686.71 1479.9 1670.42 1511.8 1658.32 1525.78 C 1659.57 1519.68 1665.94 1510.67 1665.51 1509.45 C 1660.27 1494.67 1626.66 1467.39 1613.99 1460.28 C 1609.76 1457.9 1591.82 1451.85 1586.52 1449.58 C 1552.03 1434.81 1515.93 1416.25 1486.33 1393.6 C 1473.93 1384.11 1455.21 1359.65 1461.12 1344.09 C 1462.46 1340.56 1465.33 1329.16 1464.99 1325.87 L 1464 1325.78 L 1463.42 1324.51 C 1474.01 1320.77 1485.8 1317.61 1496.68 1314.52 z" fill="url(#_6geu6c26)" />
  <path transform="translate(0,0)" d="M 1270.84 1326.16 C 1287.78 1321.99 1302.4 1314.45 1318.66 1308.42 C 1318.71 1314 1318 1319.57 1316.55 1324.96 C 1312.36 1346.51 1306.82 1369.38 1301.34 1390.71 C 1289.66 1436.12 1280.51 1483.51 1267.71 1528.49 C 1265.78 1521.85 1270.93 1509.22 1272.13 1501.75 C 1264.83 1502.64 1252.15 1507.75 1244.91 1510.61 C 1239.83 1512.62 1238.16 1517.24 1232.94 1515.69 C 1231.71 1517.99 1228.76 1535.06 1227.1 1540.83 L 1225.65 1540.86 C 1227.03 1529.06 1235.32 1497.35 1237.95 1484.03 C 1247.35 1436.29 1258.97 1388.1 1268.02 1340.35 C 1268.35 1336.78 1270.04 1329.91 1270.84 1326.16 z" fill="#F5B2DE" />
  <path transform="translate(0,0)" d="M 1270.84 1326.16 C 1287.78 1321.99 1302.4 1314.45 1318.66 1308.42 C 1318.71 1314 1318 1319.57 1316.55 1324.96 C 1312.15 1323.56 1274.01 1337.44 1268.02 1340.35 C 1268.35 1336.78 1270.04 1329.91 1270.84 1326.16 z" fill="#E35FD8" />
  <path transform="translate(0,0)" d="M 1225.65 1540.86 L 1227.1 1540.83 C 1228.76 1535.06 1231.71 1517.99 1232.94 1515.69 C 1238.16 1517.24 1239.83 1512.62 1244.91 1510.61 C 1252.15 1507.75 1264.83 1502.64 1272.13 1501.75 C 1270.93 1509.22 1265.78 1521.85 1267.71 1528.49 C 1266.18 1538.7 1261.24 1556.93 1258.63 1567.42 C 1251.47 1595.51 1244.13 1623.56 1236.6 1651.56 C 1233.17 1664.52 1223.66 1705.52 1219 1715.38 C 1219.09 1719 1219.13 1722.63 1219.12 1726.26 C 1212.87 1726.18 1206.62 1726.15 1200.36 1726.17 C 1194.69 1726.39 1187.48 1726.85 1181.93 1726.74 C 1181.71 1721.17 1189.21 1692.07 1190.98 1684.73 L 1211 1601.7 C 1214.7 1586.3 1221.04 1554.46 1225.65 1540.86 z" fill="#BB5BF1" />
  <path transform="translate(0,0)" d="M 1200.36 1726.17 C 1204.43 1724.76 1215.62 1718.06 1219 1715.38 C 1219.09 1719 1219.13 1722.63 1219.12 1726.26 C 1212.87 1726.18 1206.62 1726.15 1200.36 1726.17 z" fill="#3911AC" />
  <path transform="translate(0,0)" d="M 234.574 1117.15 C 336.58 1115.02 432.456 1132.58 510.139 1205.21 C 545.007 1237.8 555.995 1263.62 574.392 1305.43 C 580.321 1329.15 595.078 1375.57 595.023 1399.76 C 598.708 1418.08 601.092 1445.95 602.732 1465 C 605.438 1496.76 607.852 1528.54 609.973 1560.34 C 610.717 1572.93 611.392 1585.53 611.998 1598.13 L 614.158 1657.09 C 613.302 1679.09 614.332 1702.05 613.768 1724.17 C 451.931 1712.25 317.841 1657.99 219.597 1524.55 C 146.634 1425.46 126.75 1324.97 122.899 1205 C 122.118 1181.79 121.903 1160.45 121.839 1137.15 C 124.088 1136.89 141.706 1131.72 145.532 1130.6 C 153.825 1128.17 163.781 1126.44 171.621 1124.15 C 182.629 1123.23 200.139 1120.15 211.66 1118.48 C 218.731 1117.8 227.366 1117.55 234.574 1117.15 z" fill="url(#_6geu6c25)" />
  <path transform="translate(0,0)" d="M 234.574 1117.15 C 336.58 1115.02 432.456 1132.58 510.139 1205.21 C 545.007 1237.8 555.995 1263.62 574.392 1305.43 C 580.321 1329.15 595.078 1375.57 595.023 1399.76 C 593.525 1409.79 597.756 1423.57 596.003 1428.35 L 594.259 1428.77 C 585.303 1423.93 571.168 1401.77 565.544 1392.61 C 548.921 1365.54 527.924 1355.7 500.538 1342.59 C 479.252 1332.25 457.684 1322.5 435.858 1313.35 C 412.147 1303.6 372.342 1290.36 355.521 1272 C 329.481 1243.57 303.044 1238.51 268.07 1227.51 C 247.008 1220.88 227.203 1213.08 205.242 1209.99 C 182.107 1205.91 159 1203.76 135.68 1201.59 C 132.46 1201.29 128.622 1199.15 125.352 1200.16 C 125.656 1203.12 126.289 1204.25 125.251 1206.57 L 122.899 1205 C 122.118 1181.79 121.903 1160.45 121.839 1137.15 C 124.088 1136.89 141.706 1131.72 145.532 1130.6 C 153.825 1128.17 163.781 1126.44 171.621 1124.15 C 182.629 1123.23 200.139 1120.15 211.66 1118.48 C 218.731 1117.8 227.366 1117.55 234.574 1117.15 z" fill="url(#_6geu6c24)" />
  <path transform="translate(0,0)" d="M 1233.06 821.659 C 1242.44 819.756 1255.35 816.035 1264.11 814.61 C 1292.18 810.043 1347.02 816.746 1372.12 829.359 C 1377.85 831.621 1385.54 834.382 1391.01 836.847 C 1398.85 840.752 1410.17 846.156 1418.24 849.379 L 1419.12 850.043 C 1431.15 859.014 1446.06 866.31 1458.15 875.661 C 1520.82 924.138 1568.91 985.82 1585.91 1064.25 C 1600.48 1059.9 1627.88 1051.31 1642.6 1053.13 L 1643.61 1053.14 C 1659.05 1053.08 1676.65 1050.05 1692.19 1053.99 C 1706.18 1054.99 1716.95 1056.67 1730.47 1060.28 C 1737.24 1062.08 1749.13 1066.29 1755.32 1067.4 L 1755.45 1078.57 C 1754.96 1123.1 1755.91 1169.11 1753.92 1213.37 C 1750.7 1274.52 1743.14 1337.65 1724.41 1396.07 C 1722.87 1400.87 1717.41 1417.43 1715.44 1420.61 C 1711.61 1434.28 1703.2 1450.45 1695.93 1462.78 C 1692.06 1458.11 1688.47 1441.9 1686.47 1435.24 C 1675.8 1399.62 1653.99 1368.36 1624.24 1346.05 C 1585.48 1316.98 1544.03 1307.92 1496.68 1314.52 C 1485.8 1317.61 1474.01 1320.77 1463.42 1324.51 L 1460.88 1325.13 L 1460.3 1324.32 C 1469.53 1319.24 1485.84 1317.28 1492.91 1311.24 C 1492.96 1306.36 1492.99 1303.73 1489.17 1300.46 C 1480.37 1297.46 1465.07 1307.45 1452.88 1308.48 C 1432.49 1310.2 1409.67 1312.32 1389.46 1307.39 C 1375.66 1307.3 1345.42 1291.45 1336.46 1290.58 L 1334.88 1296.04 L 1333.45 1295.17 C 1336.63 1280.42 1340.51 1260.27 1342.42 1245.48 C 1343.64 1237.45 1344.4 1234.6 1342.86 1226.76 C 1336.3 1209.86 1326.89 1202.58 1311.74 1192.88 C 1293.16 1183.83 1282.12 1179.66 1262.38 1173.06 C 1264.67 1154.96 1260.22 1140.35 1250.33 1125.37 C 1240.06 1112.21 1229.9 1105.89 1215.22 1098.59 C 1214.29 1092.51 1196.79 1079.46 1191.57 1074.85 C 1161.17 1047.98 1140.22 1014.25 1134.03 973.752 C 1133.04 967.284 1133.59 953.332 1131.91 948.291 C 1136.53 936.811 1133.51 918.82 1143.64 900.393 C 1154.95 871.719 1179.65 844.927 1207.85 832.28 C 1216.33 827.714 1224.1 825.013 1233.06 821.659 z" fill="url(#_6geu6c23)" />
  <path transform="translate(0,0)" d="M 1642.6 1053.13 L 1643.61 1053.14 C 1659.05 1053.08 1676.65 1050.05 1692.19 1053.99 C 1706.18 1054.99 1716.95 1056.67 1730.47 1060.28 C 1737.24 1062.08 1749.13 1066.29 1755.32 1067.4 L 1755.45 1078.57 C 1754.96 1123.1 1755.91 1169.11 1753.92 1213.37 C 1750.7 1274.52 1743.14 1337.65 1724.41 1396.07 C 1722.87 1400.87 1717.41 1417.43 1715.44 1420.61 C 1711.61 1434.28 1703.2 1450.45 1695.93 1462.78 C 1692.06 1458.11 1688.47 1441.9 1686.47 1435.24 C 1675.8 1399.62 1653.99 1368.36 1624.24 1346.05 C 1585.48 1316.98 1544.03 1307.92 1496.68 1314.52 C 1494.25 1312.11 1493.41 1301.66 1491.53 1296.65 C 1494.24 1292.65 1510.02 1284.87 1515.4 1281.01 C 1532.76 1268.57 1550.42 1251.74 1561.04 1233.23 C 1578.71 1205.59 1586.63 1176.81 1591.33 1144.83 C 1591.18 1141.2 1592.41 1123.46 1592.52 1118.31 C 1592.28 1111.47 1592.12 1106.48 1591.13 1099.74 C 1590.14 1087.81 1588.4 1075.96 1585.91 1064.25 C 1600.48 1059.9 1627.88 1051.31 1642.6 1053.13 z" fill="#CC2D75" />
  <path transform="translate(0,0)" d="M 1642.6 1053.13 L 1643.61 1053.14 C 1659.05 1053.08 1676.65 1050.05 1692.19 1053.99 C 1706.18 1054.99 1716.95 1056.67 1730.47 1060.28 C 1737.24 1062.08 1749.13 1066.29 1755.32 1067.4 L 1755.45 1078.57 C 1754.96 1123.1 1755.91 1169.11 1753.92 1213.37 C 1753.07 1215.81 1752.2 1218.24 1751.3 1220.66 C 1752.53 1205.51 1753.09 1186.6 1753.4 1171.28 C 1753.73 1162.49 1746.09 1164.13 1740.1 1159.62 C 1711.55 1138.13 1688.46 1115.92 1655.1 1101.79 C 1640.75 1095.72 1621.86 1079.87 1607.26 1072.79 C 1603 1070.73 1596.42 1064.84 1591.75 1064.52 C 1590.85 1064.97 1589.95 1065.42 1589.05 1065.88 C 1589.13 1076.96 1596.39 1109.03 1592.52 1118.31 C 1592.28 1111.47 1592.12 1106.48 1591.13 1099.74 C 1590.14 1087.81 1588.4 1075.96 1585.91 1064.25 C 1600.48 1059.9 1627.88 1051.31 1642.6 1053.13 z" fill="url(#_6geu6c22)" />
  <path transform="translate(0,0)" d="M 1692.19 1053.99 C 1706.18 1054.99 1716.95 1056.67 1730.47 1060.28 C 1737.24 1062.08 1749.13 1066.29 1755.32 1067.4 L 1755.45 1078.57 C 1743.13 1080.65 1689.92 1065.46 1685.15 1055.73 L 1686.16 1054.27 L 1692.19 1053.99 z" fill="#FBCFA0" />
  <path transform="translate(0,0)" d="M 1591.33 1144.83 C 1594.92 1154.02 1584.4 1187.12 1580.54 1196.99 C 1584.94 1212.13 1586.78 1231.63 1589.62 1247.68 C 1593.55 1269.01 1598.63 1290.12 1604.83 1310.9 C 1614.11 1343.12 1614.85 1335.05 1638.22 1354.99 C 1663.06 1376.17 1682.43 1411.54 1690.65 1442.77 C 1691.59 1446.27 1693.18 1455.05 1695.44 1457.27 C 1702.52 1451.01 1709.69 1426.59 1715.44 1420.61 C 1711.61 1434.28 1703.2 1450.45 1695.93 1462.78 C 1692.06 1458.11 1688.47 1441.9 1686.47 1435.24 C 1675.8 1399.62 1653.99 1368.36 1624.24 1346.05 C 1585.48 1316.98 1544.03 1307.92 1496.68 1314.52 C 1494.25 1312.11 1493.41 1301.66 1491.53 1296.65 C 1494.24 1292.65 1510.02 1284.87 1515.4 1281.01 C 1532.76 1268.57 1550.42 1251.74 1561.04 1233.23 C 1578.71 1205.59 1586.63 1176.81 1591.33 1144.83 z" fill="url(#_6geu6c21)" />
  <path transform="translate(0,0)" d="M 1233.06 821.659 C 1242.44 819.756 1255.35 816.035 1264.11 814.61 C 1292.18 810.043 1347.02 816.746 1372.12 829.359 C 1377.85 831.621 1385.54 834.382 1391.01 836.847 C 1398.85 840.752 1410.17 846.156 1418.24 849.379 L 1419.12 850.043 C 1431.15 859.014 1446.06 866.31 1458.15 875.661 C 1520.82 924.138 1568.91 985.82 1585.91 1064.25 C 1588.4 1075.96 1590.14 1087.81 1591.13 1099.74 C 1592.12 1106.48 1592.28 1111.47 1592.52 1118.31 C 1592.41 1123.46 1591.18 1141.2 1591.33 1144.83 C 1586.63 1176.81 1578.71 1205.59 1561.04 1233.23 L 1560.12 1233.09 C 1559.99 1232.03 1578.04 1198.24 1579.31 1189.19 C 1576.09 1182.19 1574.33 1151.72 1573.23 1140.98 C 1577.31 1117.16 1568.05 1081.59 1557.74 1060.25 L 1557.28 1061.5 C 1554.03 1057.19 1555.36 1057.59 1551.12 1056.28 C 1548 1053.78 1538.38 1036.6 1535.03 1032.22 C 1527.07 1021.85 1510.67 993.992 1502.46 985.487 C 1485.94 968.373 1463.2 944.398 1444.22 930.668 C 1431.25 921.291 1411.9 913.946 1398.92 905.834 C 1373.07 889.681 1348.85 875.238 1319.21 866.822 C 1312.78 864.998 1297.65 864.068 1290.06 862.509 C 1276.59 859.742 1262.67 856.842 1249.02 855.827 C 1230.03 854.414 1216.34 857.44 1199.16 865.27 C 1196.65 866.414 1190.4 868.483 1188.66 870 C 1190.81 869.915 1192.96 869.78 1195.11 869.593 L 1195.37 871.465 L 1193.8 873.268 C 1189.19 874.81 1186.72 875.707 1182.37 877.921 C 1177.76 880.268 1166 890.16 1161.56 890.296 C 1162.91 886.016 1169.37 882.672 1173.64 879.648 C 1167.42 879.881 1159.62 883.942 1152.83 885.874 L 1152.02 886.097 C 1150.35 889.663 1146.69 898.617 1143.64 900.393 C 1154.95 871.719 1179.65 844.927 1207.85 832.28 C 1216.33 827.714 1224.1 825.013 1233.06 821.659 z" fill="#E35FD8" />
  <path transform="translate(0,0)" d="M 1233.06 821.659 C 1242.44 819.756 1255.35 816.035 1264.11 814.61 C 1292.18 810.043 1347.02 816.746 1372.12 829.359 C 1377.85 831.621 1385.54 834.382 1391.01 836.847 C 1398.85 840.752 1410.17 846.156 1418.24 849.379 L 1419.12 850.043 C 1431.15 859.014 1446.06 866.31 1458.15 875.661 C 1520.82 924.138 1568.91 985.82 1585.91 1064.25 C 1588.4 1075.96 1590.14 1087.81 1591.13 1099.74 C 1588.29 1109.35 1591.39 1115.88 1590.41 1124.66 C 1586.79 1118.67 1583.74 1110.22 1586.48 1103.36 C 1589.99 1094.96 1576.85 1069.18 1574.41 1058.43 C 1565.94 1021.07 1538.3 988.161 1514.3 959.341 C 1492.28 932.897 1466.69 909.244 1437.3 891.176 C 1426.03 884.231 1414.88 873.971 1403.1 867.483 C 1358.4 843.903 1304.31 827.485 1253.43 830.92 C 1236.08 832.087 1220.75 827.526 1206.61 840.034 L 1208.13 841.163 L 1207.7 842.135 C 1202.02 842.407 1187.27 851.631 1182.05 855.171 C 1180.19 855.555 1180.53 855.355 1178.51 855.015 C 1184.15 846.323 1202.1 839.526 1207.85 832.28 C 1216.33 827.714 1224.1 825.013 1233.06 821.659 z" fill="#F5B2DE" />
  <path transform="translate(0,0)" d="M 1182.05 855.171 C 1187.27 851.631 1202.02 842.407 1207.7 842.135 L 1209.11 843.753 L 1208.14 846.379 C 1206.43 847.124 1201.65 848.783 1201.1 850.032 L 1202.34 850.702 C 1196.8 854.598 1189.95 855.14 1187.76 858.156 C 1185.32 861.518 1182.26 862.707 1178.38 863.649 L 1177.93 861.512 C 1179.73 859.535 1180.73 859.057 1182.95 857.668 C 1182.65 856.816 1182.38 856.01 1182.05 855.171 z" fill="#D77EE4" />
  <path transform="translate(0,0)" d="M 1250.33 1125.37 C 1252.72 1124.03 1255.36 1121.87 1257.97 1123.15 C 1271.86 1129.94 1289.65 1144.19 1299.55 1155.33 C 1299.09 1169.79 1304.55 1178.85 1313.24 1190.86 L 1311.74 1192.88 C 1293.16 1183.83 1282.12 1179.66 1262.38 1173.06 C 1264.67 1154.96 1260.22 1140.35 1250.33 1125.37 z" fill="#3911AC" />
  <path transform="translate(0,0)" d="M 1342.86 1226.76 C 1348.58 1232.7 1348.28 1250.52 1351.14 1253.01 C 1360.84 1261.44 1362.29 1268.87 1366.96 1281.42 C 1368 1284.23 1367.29 1295.3 1367.69 1298.84 C 1370.17 1301.21 1390.61 1304.85 1393.81 1305.18 L 1393.75 1305.94 L 1389.46 1307.39 C 1375.66 1307.3 1345.42 1291.45 1336.46 1290.58 L 1334.88 1296.04 L 1333.45 1295.17 C 1336.63 1280.42 1340.51 1260.27 1342.42 1245.48 C 1343.64 1237.45 1344.4 1234.6 1342.86 1226.76 z" fill="#3911AC" />
  <path transform="translate(0,0)" d="M 1551.12 1056.28 C 1555.36 1057.59 1554.03 1057.19 1557.28 1061.5 L 1557.74 1060.25 C 1568.05 1081.59 1577.31 1117.16 1573.23 1140.98 C 1566.83 1156.5 1575.25 1176.27 1562.29 1196.8 C 1566.74 1162.14 1566.46 1125.23 1565.05 1090.42 C 1564.97 1088.49 1552.45 1059.65 1551.12 1056.28 z" fill="#BB5BF1" />
  <path transform="translate(0,0)" d="M 235.982 313.823 C 241.526 305.647 266.639 279.189 274.462 270.811 C 286.528 257.89 311.324 241.122 325.911 230.454 C 469.371 125.54 644.307 129.864 814.497 130.361 C 830.242 131.121 864.244 129.867 876.813 131.665 C 862.332 134.307 835.181 132.247 818.511 133.322 C 824.725 137.87 840.988 136.859 849.155 142.8 C 857.9 149.162 874.041 152.292 884.395 156.409 C 907.353 164.328 932.72 183.017 937.314 208.202 C 941.053 228.696 933.064 240.183 927.085 258.762 C 925.094 264.95 925.029 271.882 923.352 278.571 L 924.46 282.346 C 920.869 283.485 906.605 276.577 901.122 280.203 C 875.397 277.847 847.998 274.915 822.2 275.185 C 696.805 276.498 582.974 313.242 486.324 393.736 C 482.479 396.942 478.732 400.264 475.088 403.697 C 425.769 444.76 378.803 511.923 350.944 569.451 C 348.381 574.744 339.797 593.888 338.529 598.76 C 326.678 618.09 315.654 659.754 308.67 681.783 C 295.699 684.188 259.131 691.318 248.727 697.604 C 207.936 709.408 157.723 739.236 129.212 770.757 C 126.941 772.427 124.139 774.615 121.776 775.992 C 121.222 769.74 121.196 762.735 121.164 756.561 C 120.437 617.707 124.753 475.621 204.598 356.047 C 211.699 345.413 226.126 321.568 235.982 313.823 z" fill="#8E40F8" />
  <path transform="translate(0,0)" d="M 235.982 313.823 C 241.526 305.647 266.639 279.189 274.462 270.811 C 286.528 257.89 311.324 241.122 325.911 230.454 C 469.371 125.54 644.307 129.864 814.497 130.361 C 830.242 131.121 864.244 129.867 876.813 131.665 C 862.332 134.307 835.181 132.247 818.511 133.322 C 812.579 133.447 807.505 132.734 801.516 132.661 C 783.714 132.511 765.911 132.458 748.108 132.503 C 720.182 132.658 691.834 134.332 663.969 135.109 C 621.07 135.925 576.543 138.167 534.619 147.705 C 514.441 152.296 492.815 164.838 473.33 171.78 C 429.431 187.419 386.424 204.646 344.974 226.074 C 334.489 231.494 323.575 241.776 313.179 247.71 C 296.475 257.339 288.971 259.146 274.818 273.393 C 267.197 281.064 244.501 311.305 235.982 313.823 z" fill="#BB5BF1" />
  <path transform="translate(0,0)" d="M 475.088 403.697 C 478.732 400.264 482.479 396.942 486.324 393.736 C 582.974 313.242 696.805 276.498 822.2 275.185 C 847.998 274.915 875.397 277.847 901.122 280.203 C 907.838 282.641 922.893 284.051 930.666 285.543 C 948.475 289.056 966.134 293.293 983.599 298.242 C 1021.13 309.035 1057.36 323.938 1091.63 342.681 C 1104.48 349.822 1119.96 360.558 1131.84 366.749 L 1132.8 367.611 C 1137.6 371.861 1148.17 378.204 1154.1 383.044 C 1170.88 396.741 1188.24 410.758 1203.65 425.984 C 1215.25 437.426 1226.28 449.431 1236.7 461.956 C 1241.94 468.279 1252.03 481.793 1257.42 486.857 C 1278.64 484.235 1304.35 483.13 1325.72 484.751 C 1313.85 484.963 1268.84 483.824 1261.12 488.678 C 1261.07 493.804 1263.68 491.498 1263.17 495.602 C 1270.02 506.244 1279.84 520.717 1285.64 531.548 C 1290.74 538.026 1294.5 546.994 1299.5 553.919 C 1307.66 569.479 1318.03 586.87 1325.39 602.476 C 1342.47 639.559 1358.2 677.249 1372.54 715.472 C 1380.98 738.313 1389.04 763.099 1397.28 786.024 C 1402.05 799.267 1417.58 837.701 1418.24 849.379 C 1410.17 846.156 1398.85 840.752 1391.01 836.847 C 1385.54 834.382 1377.85 831.621 1372.12 829.359 C 1347.02 816.746 1292.18 810.043 1264.11 814.61 C 1255.35 816.035 1242.44 819.756 1233.06 821.659 L 1233.82 819.903 C 1259.55 811.662 1279.92 811.294 1306.5 811.833 C 1310.55 811.915 1321.94 815.112 1324.48 814.212 C 1323.43 812.609 1323.19 812.522 1321.67 811.389 C 1321.97 806.837 1317.38 804.046 1315.51 799.07 C 1305.72 773.084 1282.58 751.359 1262.39 733.15 C 1258.4 729.545 1245.32 721.627 1242.42 717.603 C 1237.46 710.71 1234.46 712.276 1230.21 706.757 C 1227.49 703.384 1222.7 699.895 1219.11 697.195 C 1207.99 688.846 1198.11 677.565 1185.47 671.667 C 1184.57 671.246 1181.46 666.329 1180.44 665.582 C 1175.1 661.655 1172.67 660.467 1169.4 654.529 L 1167.46 655.799 C 1159.21 656.036 1156.86 640.463 1147.59 642.675 C 1143.8 655.252 1154.06 689.415 1154.99 705.353 C 1156.17 725.724 1152.11 788.407 1132.3 796.909 C 1131.67 797.299 1126.8 802.108 1125.94 802.977 C 1105.88 823.19 1074.7 821.944 1052.81 803.606 C 1014.84 771.783 999.292 717.386 993.866 669.204 C 987.299 658.39 991.452 632.206 993.295 619.847 C 997.935 588.729 1012.98 558.924 1046.23 552.006 C 1050.52 551.114 1053.93 553.187 1058.48 551.837 C 1055.28 551.037 1052.41 550.986 1050.77 548.825 C 1054.55 540.689 1052.92 549.665 1056.14 543.377 C 1052.35 538.397 1041.86 530.894 1036.49 526.327 C 1028.69 519.697 1017.03 505.673 1009.18 500.203 C 992.703 488.722 968.405 476.626 950.32 467.077 C 931.691 457.242 915.962 447.119 897.946 436.892 C 894.139 434.731 876.254 428.207 871.49 426.406 C 853.225 419.502 833.923 411.822 815.336 405.886 C 803.842 402.215 787.011 399.623 775.308 396.567 C 757.245 391.852 739.458 388.307 720.864 386.192 C 706.908 384.604 691.383 384.766 677.157 383.485 C 661.907 382.111 646.483 381.148 631.109 382.051 C 628.147 382.293 625.141 384.305 622.257 384.662 C 582.345 389.601 543.71 406.548 509.897 427.829 C 501.771 432.944 494.262 440.584 485.704 444.738 L 488.271 441.39 C 488.553 428.253 494.553 432.955 502.297 426.905 C 519.998 413.074 538.539 402.157 555.23 386.752 C 559.858 382.152 600.131 369.179 605.647 358.344 C 605.884 358.019 606.122 357.693 606.359 357.367 C 608.797 357.694 610.364 358.247 612.417 357.031 C 607.232 351.508 599.663 354.88 593.183 356.493 L 592.849 355.309 L 592.47 355.958 C 594.257 354.075 595.207 353.377 597.215 351.778 C 581.253 358.641 564.98 367.477 549.049 374.654 C 543.938 376.957 534.044 383.299 529.687 384.857 C 532.599 371.271 548.199 367.394 556.165 359.207 C 537.711 364.985 492.994 399.997 474.024 411.476 L 475.114 410.263 C 495.683 387.795 550.15 354.727 577.224 339.769 L 577.281 338.871 C 546.183 342.503 485.501 401.774 475.088 403.697 z" fill="url(#_6geu6c20)" />
  <path transform="translate(0,0)" d="M 475.088 403.697 C 478.732 400.264 482.479 396.942 486.324 393.736 C 582.974 313.242 696.805 276.498 822.2 275.185 C 847.998 274.915 875.397 277.847 901.122 280.203 C 907.838 282.641 922.893 284.051 930.666 285.543 C 948.475 289.056 966.134 293.293 983.599 298.242 C 1021.13 309.035 1057.36 323.938 1091.63 342.681 C 1104.48 349.822 1119.96 360.558 1131.84 366.749 L 1132.8 367.611 C 1137.6 371.861 1148.17 378.204 1154.1 383.044 C 1170.88 396.741 1188.24 410.758 1203.65 425.984 C 1215.25 437.426 1226.28 449.431 1236.7 461.956 C 1241.94 468.279 1252.03 481.793 1257.42 486.857 C 1278.64 484.235 1304.35 483.13 1325.72 484.751 C 1313.85 484.963 1268.84 483.824 1261.12 488.678 C 1261.07 493.804 1263.68 491.498 1263.17 495.602 C 1270.02 506.244 1279.84 520.717 1285.64 531.548 C 1290.74 538.026 1294.5 546.994 1299.5 553.919 C 1307.66 569.479 1318.03 586.87 1325.39 602.476 C 1342.47 639.559 1358.2 677.249 1372.54 715.472 C 1380.98 738.313 1389.04 763.099 1397.28 786.024 C 1402.05 799.267 1417.58 837.701 1418.24 849.379 C 1410.17 846.156 1398.85 840.752 1391.01 836.847 L 1392.19 830.898 L 1392.78 830.591 L 1394.1 831.634 C 1397.73 813.569 1372.06 772.813 1374.25 765.591 C 1370.18 756.803 1365.81 746.973 1361.54 738.388 C 1359.93 735.17 1348.23 715.483 1346.13 713.661 C 1344.67 720.653 1356.26 732.279 1357.25 739.753 L 1354.34 738.3 C 1347.79 731.961 1337.07 701.116 1331.94 691.134 C 1325.33 678.274 1317.58 666.067 1310.51 653.46 C 1301.12 636.739 1292.93 615.784 1280.28 601.305 L 1279.21 601.265 C 1280.06 604.216 1280.94 607.159 1281.84 610.094 C 1280.64 609.401 1260.12 583.07 1259.21 581.077 C 1262.05 580.983 1262.41 582.534 1265.56 584.979 L 1265.98 583.788 C 1262.06 573.442 1252.54 560.728 1246.54 551.13 C 1235.26 533.107 1220.2 517.672 1207.58 500.637 C 1204.38 496.912 1200.94 492.678 1197.47 489.237 C 1132.27 424.624 1057.48 373.748 970.896 342.3 C 966.4 340.667 958.087 339.207 953.104 338.107 C 917.429 330.23 883.238 319.501 846.912 314.6 C 836.435 313.179 825.924 310.626 815.247 309.949 C 811.668 309.722 807.798 308.257 804.171 308.143 C 777.108 309.292 750.035 311.98 723.142 315.248 C 705.768 317.305 688.996 317.927 671.892 321.654 L 670.62 322.143 C 663.298 324.879 654.967 323.928 651.487 330.078 L 650.471 328.222 C 647.861 329.001 648.009 328.873 646.144 330.844 L 647.773 331.918 C 640.946 338.155 631.997 335.253 625.225 340.277 C 620.634 343.681 612.587 346.359 607.11 348.577 L 608.043 348.541 C 603.504 350.921 602.335 350.98 597.215 351.778 C 581.253 358.641 564.98 367.477 549.049 374.654 C 543.938 376.957 534.044 383.299 529.687 384.857 C 532.599 371.271 548.199 367.394 556.165 359.207 C 537.711 364.985 492.994 399.997 474.024 411.476 L 475.114 410.263 C 495.683 387.795 550.15 354.727 577.224 339.769 L 577.281 338.871 C 546.183 342.503 485.501 401.774 475.088 403.697 z" fill="#E35FD8" />
  <path transform="translate(0,0)" d="M 475.088 403.697 C 478.732 400.264 482.479 396.942 486.324 393.736 C 582.974 313.242 696.805 276.498 822.2 275.185 C 847.998 274.915 875.397 277.847 901.122 280.203 C 907.838 282.641 922.893 284.051 930.666 285.543 C 948.475 289.056 966.134 293.293 983.599 298.242 C 1021.13 309.035 1057.36 323.938 1091.63 342.681 C 1104.48 349.822 1119.96 360.558 1131.84 366.749 L 1132.8 367.611 C 1137.6 371.861 1148.17 378.204 1154.1 383.044 C 1170.88 396.741 1188.24 410.758 1203.65 425.984 C 1215.25 437.426 1226.28 449.431 1236.7 461.956 C 1241.94 468.279 1252.03 481.793 1257.42 486.857 C 1278.64 484.235 1304.35 483.13 1325.72 484.751 C 1313.85 484.963 1268.84 483.824 1261.12 488.678 C 1261.07 493.804 1263.68 491.498 1263.17 495.602 C 1270.02 506.244 1279.84 520.717 1285.64 531.548 C 1278.87 529.835 1267.38 509.241 1258.6 503.023 C 1258.35 508.404 1267.86 515.062 1263 519.126 C 1258.05 516.879 1236.67 488.788 1229.8 481.918 C 1213.03 465.136 1186.85 436.268 1166.42 424.161 C 1158.53 416.867 1147.46 411.004 1139.07 404.254 C 1107.75 379.065 1075.2 361.244 1039.2 343.486 C 1026.55 344.035 1018.35 338.893 1006.36 335.76 C 951.771 321.491 896.415 305.373 839.768 302.509 C 830.463 302.038 820.721 300.191 811.322 300.307 C 800.979 300.964 790.446 301.949 780.036 302.639 C 778.422 303.773 775.57 305.851 773.657 305.895 C 749.692 306.446 727.003 304.836 703.902 313.069 C 699.046 314.8 689.344 313.807 684.167 316.415 C 679.071 318.982 676.208 317.191 671.892 321.654 L 670.62 322.143 C 663.298 324.879 654.967 323.928 651.487 330.078 L 650.471 328.222 C 647.861 329.001 648.009 328.873 646.144 330.844 L 647.773 331.918 C 640.946 338.155 631.997 335.253 625.225 340.277 C 620.634 343.681 612.587 346.359 607.11 348.577 L 608.043 348.541 C 603.504 350.921 602.335 350.98 597.215 351.778 C 581.253 358.641 564.98 367.477 549.049 374.654 C 543.938 376.957 534.044 383.299 529.687 384.857 C 532.599 371.271 548.199 367.394 556.165 359.207 C 537.711 364.985 492.994 399.997 474.024 411.476 L 475.114 410.263 C 495.683 387.795 550.15 354.727 577.224 339.769 L 577.281 338.871 C 546.183 342.503 485.501 401.774 475.088 403.697 z" fill="url(#_6geu6c19)" />
  <path transform="translate(0,0)" d="M 556.165 359.207 C 567.734 353.526 579.156 345.732 590.257 340.296 C 599.569 335.579 610.598 332.421 619.957 328.066 C 678.943 300.351 745.963 295.708 810.147 292.165 C 819.299 291.66 833.497 294.075 842.878 295.059 C 865.642 297.449 888.106 300.458 910.532 305.071 C 942.912 311.965 1011.91 327.508 1039.2 343.486 C 1026.55 344.035 1018.35 338.893 1006.36 335.76 C 951.771 321.491 896.415 305.373 839.768 302.509 C 830.463 302.038 820.721 300.191 811.322 300.307 C 800.979 300.964 790.446 301.949 780.036 302.639 C 778.422 303.773 775.57 305.851 773.657 305.895 C 749.692 306.446 727.003 304.836 703.902 313.069 C 699.046 314.8 689.344 313.807 684.167 316.415 C 679.071 318.982 676.208 317.191 671.892 321.654 L 670.62 322.143 C 663.298 324.879 654.967 323.928 651.487 330.078 L 650.471 328.222 C 647.861 329.001 648.009 328.873 646.144 330.844 L 647.773 331.918 C 640.946 338.155 631.997 335.253 625.225 340.277 C 620.634 343.681 612.587 346.359 607.11 348.577 L 608.043 348.541 C 603.504 350.921 602.335 350.98 597.215 351.778 C 581.253 358.641 564.98 367.477 549.049 374.654 C 543.938 376.957 534.044 383.299 529.687 384.857 C 532.599 371.271 548.199 367.394 556.165 359.207 z" fill="#FA7FDC" />
  <path transform="translate(0,0)" d="M 910.532 305.071 C 937.039 302.709 958.845 307.638 983.413 317.166 C 986.561 317.924 991.566 317.746 994.498 318.711 C 1002.73 321.42 1011.31 324.73 1019.78 326.686 C 1039.25 331.184 1055.13 342.719 1073.49 350.424 C 1085.09 355.292 1098.18 361.742 1108.9 368.343 C 1110.43 369.341 1119.2 379.706 1120.61 381.473 L 1121.86 381.373 L 1121.15 377.638 C 1127.75 384.057 1131.66 390.875 1139.11 396.532 C 1144.6 400.699 1156.45 401.658 1158.91 407.495 C 1160.74 411.841 1168.41 414.959 1173.08 417.154 L 1173.37 414.251 C 1177.25 415.831 1179.72 425.274 1184.7 427.859 L 1184.04 424.759 C 1194.16 426.53 1249.53 490.023 1257.94 502.071 L 1258.6 503.023 C 1258.35 508.404 1267.86 515.062 1263 519.126 C 1258.05 516.879 1236.67 488.788 1229.8 481.918 C 1213.03 465.136 1186.85 436.268 1166.42 424.161 C 1158.53 416.867 1147.46 411.004 1139.07 404.254 C 1107.75 379.065 1075.2 361.244 1039.2 343.486 C 1011.91 327.508 942.912 311.965 910.532 305.071 z" fill="#FCC1C9" />
  <path transform="translate(0,0)" d="M 1166.42 424.161 C 1186.85 436.268 1213.03 465.136 1229.8 481.918 C 1236.67 488.788 1258.05 516.879 1263 519.126 C 1267.86 515.062 1258.35 508.404 1258.6 503.023 C 1267.38 509.241 1278.87 529.835 1285.64 531.548 C 1290.74 538.026 1294.5 546.994 1299.5 553.919 C 1307.66 569.479 1318.03 586.87 1325.39 602.476 C 1342.47 639.559 1358.2 677.249 1372.54 715.472 C 1380.98 738.313 1389.04 763.099 1397.28 786.024 C 1402.05 799.267 1417.58 837.701 1418.24 849.379 C 1410.17 846.156 1398.85 840.752 1391.01 836.847 L 1392.19 830.898 L 1392.78 830.591 L 1394.1 831.634 C 1397.73 813.569 1372.06 772.813 1374.25 765.591 C 1374.92 750.345 1352.82 708.231 1345.45 692.652 C 1331.35 662.859 1320.31 631.646 1305.69 602.079 C 1298.82 588.203 1290 576.029 1281.65 563.076 C 1267.03 540.396 1253.21 517.887 1235.83 497.126 C 1214.96 472.206 1187.24 449.508 1166.42 424.161 z" fill="url(#_6geu6c18)" />
  <path transform="translate(0,0)" d="M 993.866 669.204 C 992.342 639.193 993.679 593.107 1015.94 571.501 C 1070.67 518.385 1127.26 592.093 1140.66 642.225 C 1154.53 694.097 1163.68 751.692 1132.3 796.909 C 1131.67 797.299 1126.8 802.108 1125.94 802.977 C 1105.88 823.19 1074.7 821.944 1052.81 803.606 C 1014.84 771.783 999.292 717.386 993.866 669.204 z" fill="#FEFEFE" />
  <path transform="translate(0,0)" d="M 1354.34 738.3 L 1357.25 739.753 C 1356.26 732.279 1344.67 720.653 1346.13 713.661 C 1348.23 715.483 1359.93 735.17 1361.54 738.388 C 1365.81 746.973 1370.18 756.803 1374.25 765.591 C 1372.06 772.813 1397.73 813.569 1394.1 831.634 L 1392.78 830.591 L 1392.19 830.898 L 1391.01 836.847 C 1385.54 834.382 1377.85 831.621 1372.12 829.359 C 1374.67 829.501 1380.91 830.175 1382.5 828.526 C 1381.21 827.182 1379.79 826.167 1378.24 825.134 C 1377.4 808.498 1366.32 797.795 1359.51 783.324 C 1358.42 781.003 1359.52 781.123 1357.13 779.025 L 1357.24 778.004 C 1355.34 775.122 1354.98 774.539 1353.59 771.405 L 1354.35 770.141 L 1357.05 771.191 C 1356.62 773.232 1373.63 796.789 1375.95 796.871 C 1373.29 793.057 1373.46 788.219 1373.23 783.591 C 1372.55 783.82 1371.44 786.14 1371.21 786.762 C 1369 785.706 1369.44 781.579 1368.78 777.924 C 1366.21 763.624 1359.52 751.421 1354.34 738.3 z" fill="#FA7FDC" />
  <path transform="translate(0,0)" d="M 1031.81 1061.58 C 1051.23 1049.73 1071.86 1043.81 1094 1050.35 L 1100.91 1052.22 C 1105.76 1054.55 1112.59 1057.57 1116.84 1060.54 C 1131.78 1068.91 1145.39 1085.54 1147.47 1102.91 L 1148.66 1103.47 C 1176.48 1095 1183.87 1088.8 1215.22 1098.59 C 1229.9 1105.89 1240.06 1112.21 1250.33 1125.37 C 1260.22 1140.35 1264.67 1154.96 1262.38 1173.06 C 1282.12 1179.66 1293.16 1183.83 1311.74 1192.88 C 1326.89 1202.58 1336.3 1209.86 1342.86 1226.76 C 1344.4 1234.6 1343.64 1237.45 1342.42 1245.48 C 1340.51 1260.27 1336.63 1280.42 1333.45 1295.17 C 1329.72 1299.71 1323.55 1305.14 1318.66 1308.42 C 1302.4 1314.45 1287.78 1321.99 1270.84 1326.16 C 1250.23 1331.76 1211.28 1338.07 1189.76 1339.21 C 1152.83 1342.42 1123.2 1342.88 1086.48 1342.85 C 1085.86 1346.9 1084.23 1355.96 1084.1 1359.65 L 1083.71 1360.73 C 1070.77 1360.17 1016.56 1359.78 1005.61 1361.4 C 993.343 1363.55 980.383 1358.05 969.824 1360.84 L 969.954 1357.32 L 970.32 1356 C 971.532 1351.35 971.708 1343.08 971.909 1338.14 C 967.375 1337.27 962.429 1337.08 957.808 1336.5 C 925.899 1332.52 893.334 1328.06 861.809 1321.86 C 853.431 1320.48 844.589 1318.5 836.23 1316.79 C 828.168 1315.23 820.214 1313.03 812.268 1310.94 C 799.205 1307.99 785.517 1302.91 772.433 1300.01 C 769.91 1294.82 759.042 1244.86 757.749 1237.13 L 758.914 1237.3 C 761.928 1239.79 762.576 1240.94 766.261 1240.24 L 767.097 1238.28 C 756.482 1229.37 749.05 1230.08 746.632 1215.81 C 738.173 1197.54 727.3 1183.42 715.724 1167.12 C 712.279 1162.27 705.4 1157.31 704.983 1153.93 C 726.093 1142.3 734.105 1141.87 757.802 1137.8 C 758.994 1109.95 790.214 1084.43 815.691 1078.99 C 832.551 1075.39 844.84 1076.2 861.199 1081.13 C 871.125 1085.42 878.522 1088.79 887.339 1095.16 C 902.504 1109.1 908.919 1117.11 915.399 1136.79 C 916.102 1138.92 919.768 1149.82 920.528 1151.08 C 941.585 1128.77 971.193 1124.38 1000.22 1128.58 C 1000.8 1126.82 1000.83 1126.88 1000.78 1125.09 C 1000.49 1114.03 1003.83 1102.4 1007.69 1092.17 C 1012.57 1085.77 1014.82 1080.41 1021.27 1073.83 C 1024.55 1070.49 1030.55 1065.4 1031.81 1061.58 z" fill="url(#_6geu6c17)" />
  <path transform="translate(0,0)" d="M 1031.81 1061.58 C 1051.23 1049.73 1071.86 1043.81 1094 1050.35 L 1100.91 1052.22 C 1105.76 1054.55 1112.59 1057.57 1116.84 1060.54 C 1131.78 1068.91 1145.39 1085.54 1147.47 1102.91 L 1148.66 1103.47 C 1176.48 1095 1183.87 1088.8 1215.22 1098.59 C 1229.9 1105.89 1240.06 1112.21 1250.33 1125.37 C 1260.22 1140.35 1264.67 1154.96 1262.38 1173.06 C 1261.25 1178.62 1261.33 1183.75 1262.71 1189.24 L 1264.48 1191.15 C 1272.05 1209.59 1271.87 1218.87 1271.83 1238.57 L 1270.71 1238.61 C 1247.44 1245.75 1223.16 1251.02 1198.78 1252.29 C 1187.58 1255.02 1139.23 1255.91 1125.22 1256.36 C 1103.98 1257.51 1082.82 1256.87 1061.58 1256.19 C 1063.52 1246.92 1070.4 1237.69 1071.38 1228.02 C 1071.85 1220.06 1072.03 1214.01 1071.85 1206.05 C 1070.73 1203.69 1070.31 1196.99 1070.13 1194.06 C 1060.45 1154.09 1034.77 1141.6 1000.22 1128.58 C 1000.8 1126.82 1000.83 1126.88 1000.78 1125.09 C 1000.49 1114.03 1003.83 1102.4 1007.69 1092.17 C 1012.57 1085.77 1014.82 1080.41 1021.27 1073.83 C 1024.55 1070.49 1030.55 1065.4 1031.81 1061.58 z" fill="url(#_6geu6c16)" />
  <path transform="translate(0,0)" d="M 1031.81 1061.58 C 1051.23 1049.73 1071.86 1043.81 1094 1050.35 L 1100.91 1052.22 C 1105.76 1054.55 1112.59 1057.57 1116.84 1060.54 C 1131.78 1068.91 1145.39 1085.54 1147.47 1102.91 L 1148.66 1103.47 C 1160.31 1116.86 1156.96 1128.21 1150.24 1142.79 C 1148.65 1146.24 1153.24 1151.17 1148.27 1156.53 C 1118.99 1154.67 1097.15 1161 1077.97 1184.64 C 1075.53 1187.65 1073.59 1192.66 1070.13 1194.06 C 1060.45 1154.09 1034.77 1141.6 1000.22 1128.58 C 1000.8 1126.82 1000.83 1126.88 1000.78 1125.09 C 1000.49 1114.03 1003.83 1102.4 1007.69 1092.17 C 1012.57 1085.77 1014.82 1080.41 1021.27 1073.83 C 1024.55 1070.49 1030.55 1065.4 1031.81 1061.58 z" fill="url(#_6geu6c15)" />
  <path transform="translate(0,0)" d="M 1094 1050.35 L 1100.91 1052.22 C 1105.76 1054.55 1112.59 1057.57 1116.84 1060.54 C 1111.46 1061.36 1108.84 1057.59 1103.81 1056.57 C 1103.66 1060.68 1103.07 1061.85 1099.71 1064.02 C 1095.6 1064.24 1096.85 1064.75 1093.78 1062.86 L 1093.16 1058.76 L 1090.38 1058.3 L 1089.42 1056.91 C 1090.03 1053.09 1090.51 1053.63 1094 1050.35 z" fill="#FEFEFE" />
  <path transform="translate(0,0)" d="M 1070.13 1194.06 C 1073.59 1192.66 1075.53 1187.65 1077.97 1184.64 C 1097.15 1161 1118.99 1154.67 1148.27 1156.53 C 1168.43 1161.27 1183.39 1168.88 1195.73 1186.82 C 1197.7 1189.68 1201.79 1199.19 1203.32 1200.97 C 1208.51 1215.79 1211.54 1231.14 1205.86 1246.92 C 1204.33 1251.15 1196.82 1250.89 1192.78 1251 C 1195.63 1252.75 1195.8 1251.49 1198.78 1252.29 C 1187.58 1255.02 1139.23 1255.91 1125.22 1256.36 C 1103.98 1257.51 1082.82 1256.87 1061.58 1256.19 C 1063.52 1246.92 1070.4 1237.69 1071.38 1228.02 C 1071.85 1220.06 1072.03 1214.01 1071.85 1206.05 C 1070.73 1203.69 1070.31 1196.99 1070.13 1194.06 z" fill="url(#_6geu6c14)" />
  <path transform="translate(0,0)" d="M 1071.85 1206.05 C 1077.99 1209.13 1087.65 1224.88 1090.4 1231.22 L 1090.27 1232.6 L 1084.77 1228.54 C 1085.95 1234.79 1097.78 1239.69 1101.05 1253.5 C 1102.76 1254.88 1120.92 1255.81 1125.22 1256.36 C 1103.98 1257.51 1082.82 1256.87 1061.58 1256.19 C 1063.52 1246.92 1070.4 1237.69 1071.38 1228.02 C 1071.85 1220.06 1072.03 1214.01 1071.85 1206.05 z" fill="#F7A786" />
  <path transform="translate(0,0)" d="M 1203.32 1200.97 L 1204.7 1199.8 C 1211.72 1202.9 1213.32 1209.2 1218.74 1214.05 C 1226.88 1221.35 1261.87 1237.08 1270.71 1238.61 C 1247.44 1245.75 1223.16 1251.02 1198.78 1252.29 C 1195.8 1251.49 1195.63 1252.75 1192.78 1251 C 1196.82 1250.89 1204.33 1251.15 1205.86 1246.92 C 1211.54 1231.14 1208.51 1215.79 1203.32 1200.97 z" fill="#FBCFA0" />
  <path transform="translate(0,0)" d="M 746.632 1215.81 C 752.944 1226.37 763.957 1231.91 775.904 1234.26 C 799.789 1241.91 825.405 1250.31 849.735 1255.64 C 870.158 1260.12 892.622 1263.41 913.426 1266.54 C 1001.56 1280.44 1090.95 1284.61 1179.99 1278.97 C 1206.19 1277.24 1230.01 1275.49 1255.64 1270.52 C 1283.11 1265.19 1307.27 1261.27 1332.34 1247.89 C 1335.13 1246.4 1339.17 1246.15 1342.42 1245.48 C 1340.51 1260.27 1336.63 1280.42 1333.45 1295.17 C 1329.72 1299.71 1323.55 1305.14 1318.66 1308.42 C 1302.4 1314.45 1287.78 1321.99 1270.84 1326.16 C 1250.23 1331.76 1211.28 1338.07 1189.76 1339.21 C 1152.83 1342.42 1123.2 1342.88 1086.48 1342.85 C 1085.86 1346.9 1084.23 1355.96 1084.1 1359.65 L 1083.71 1360.73 C 1070.77 1360.17 1016.56 1359.78 1005.61 1361.4 C 993.343 1363.55 980.383 1358.05 969.824 1360.84 L 969.954 1357.32 L 970.32 1356 C 971.532 1351.35 971.708 1343.08 971.909 1338.14 C 967.375 1337.27 962.429 1337.08 957.808 1336.5 C 925.899 1332.52 893.334 1328.06 861.809 1321.86 C 853.431 1320.48 844.589 1318.5 836.23 1316.79 C 828.168 1315.23 820.214 1313.03 812.268 1310.94 C 799.205 1307.99 785.517 1302.91 772.433 1300.01 C 769.91 1294.82 759.042 1244.86 757.749 1237.13 L 758.914 1237.3 C 761.928 1239.79 762.576 1240.94 766.261 1240.24 L 767.097 1238.28 C 756.482 1229.37 749.05 1230.08 746.632 1215.81 z" fill="url(#_6geu6c13)" />
  <path transform="translate(0,0)" d="M 971.909 1338.14 C 1005.86 1341.24 1052.5 1343.72 1086.48 1342.85 C 1085.86 1346.9 1084.23 1355.96 1084.1 1359.65 L 1083.71 1360.73 C 1070.77 1360.17 1016.56 1359.78 1005.61 1361.4 C 993.343 1363.55 980.383 1358.05 969.824 1360.84 L 969.954 1357.32 L 970.32 1356 C 971.532 1351.35 971.708 1343.08 971.909 1338.14 z" fill="#CC2D75" />
  <path transform="translate(0,0)" d="M 772.433 1300.01 C 769.91 1294.82 759.042 1244.86 757.749 1237.13 L 758.914 1237.3 C 761.928 1239.79 762.576 1240.94 766.261 1240.24 L 767.097 1238.28 C 773.808 1239.93 778.348 1243.36 781.879 1249.25 C 785.999 1256.13 799.308 1287.37 798.076 1294.42 C 797.538 1297.49 796.703 1300.61 797.753 1303.63 C 803.753 1308.7 806.752 1304.8 812.268 1310.94 C 799.205 1307.99 785.517 1302.91 772.433 1300.01 z" fill="url(#_6geu6c12)" />
  <path transform="translate(0,0)" d="M 746.632 1215.81 C 752.944 1226.37 763.957 1231.91 775.904 1234.26 C 797.17 1247.61 795.127 1264.38 805.622 1283.54 C 808.684 1289.13 819.432 1298.99 823.705 1304.33 C 829.165 1311.15 823.131 1311.86 833.894 1314.21 L 836.23 1316.79 C 828.168 1315.23 820.214 1313.03 812.268 1310.94 C 806.752 1304.8 803.753 1308.7 797.753 1303.63 C 796.703 1300.61 797.538 1297.49 798.076 1294.42 C 799.308 1287.37 785.999 1256.13 781.879 1249.25 C 778.348 1243.36 773.808 1239.93 767.097 1238.28 C 756.482 1229.37 749.05 1230.08 746.632 1215.81 z" fill="#D77EE4" />
  <path transform="translate(0,0)" d="M 757.802 1137.8 C 758.994 1109.95 790.214 1084.43 815.691 1078.99 C 832.551 1075.39 844.84 1076.2 861.199 1081.13 C 871.125 1085.42 878.522 1088.79 887.339 1095.16 C 902.504 1109.1 908.919 1117.11 915.399 1136.79 C 916.102 1138.92 919.768 1149.82 920.528 1151.08 C 915.828 1158.28 897.661 1179.64 896.128 1186.72 C 894.201 1192.04 892.049 1197.03 891.361 1202.62 C 892.077 1215.56 890.988 1225.87 894.172 1238.56 C 868.547 1233.15 841.371 1227.56 816.137 1220.97 C 794.776 1215.34 773.909 1207.98 753.741 1198.97 C 755.361 1188.92 753.41 1175.95 754.161 1164.02 C 755.168 1159.12 755.427 1156.38 755.81 1151.51 L 756.162 1150.48 C 756.213 1147.7 757.364 1140.83 757.802 1137.8 z" fill="#FBCFA0" />
  <path transform="translate(0,0)" d="M 816.334 1219.58 C 825.109 1219.28 848.816 1229.86 859.616 1227.34 C 872.126 1224.42 875.933 1217.27 885.579 1210.72 C 885.456 1210.8 889.608 1210.44 890.223 1210.37 C 891.331 1207.43 891.213 1205.72 891.361 1202.62 C 892.077 1215.56 890.988 1225.87 894.172 1238.56 C 868.547 1233.15 841.371 1227.56 816.137 1220.97 L 816.334 1219.58 z" fill="#F7A786" />
  <path transform="translate(0,0)" d="M 756.162 1150.48 C 760.63 1171.35 752.55 1190.81 774.455 1204.68 C 786.26 1212.16 803.413 1214.49 816.334 1219.58 L 816.137 1220.97 C 794.776 1215.34 773.909 1207.98 753.741 1198.97 C 755.361 1188.92 753.41 1175.95 754.161 1164.02 C 755.168 1159.12 755.427 1156.38 755.81 1151.51 L 756.162 1150.48 z" fill="#FC90A6" />
  <path transform="translate(0,0)" d="M 920.528 1151.08 C 941.585 1128.77 971.193 1124.38 1000.22 1128.58 C 1034.77 1141.6 1060.45 1154.09 1070.13 1194.06 C 1070.31 1196.99 1070.73 1203.69 1071.85 1206.05 C 1072.03 1214.01 1071.85 1220.06 1071.38 1228.02 C 1070.4 1237.69 1063.52 1246.92 1061.58 1256.19 C 1040.87 1257.28 990.216 1252.56 968.204 1250.06 C 942.908 1247.54 919.185 1242.62 894.172 1238.56 C 890.988 1225.87 892.077 1215.56 891.361 1202.62 C 892.049 1197.03 894.201 1192.04 896.128 1186.72 C 897.661 1179.64 915.828 1158.28 920.528 1151.08 z" fill="url(#_6geu6c11)" />
  <path transform="translate(0,0)" d="M 891.361 1202.62 C 892.049 1197.03 894.201 1192.04 896.128 1186.72 C 897.238 1194.84 894.008 1202.9 893.905 1211.23 C 916.522 1217.23 929.001 1225.04 949.748 1236.11 C 954.388 1238.59 964.393 1242.93 968.215 1245.48 C 967.949 1246.87 967.613 1247.49 967.991 1248.87 L 968.204 1250.06 C 942.908 1247.54 919.185 1242.62 894.172 1238.56 C 890.988 1225.87 892.077 1215.56 891.361 1202.62 z" fill="url(#_6geu6c10)" />
  <path transform="translate(0,0)" d="M 967.991 1248.87 C 983.915 1246.93 993.794 1248.68 1009.27 1242.26 C 1012.83 1240.78 1031.28 1240.83 1036.07 1240.9 C 1044.56 1241.04 1057.51 1237.47 1064.26 1241.75 C 1066.92 1239.17 1068.34 1232.24 1071.38 1228.02 C 1070.4 1237.69 1063.52 1246.92 1061.58 1256.19 C 1040.87 1257.28 990.216 1252.56 968.204 1250.06 L 967.991 1248.87 z" fill="#FBCFA0" />
  <path transform="translate(0,0)" d="M 1264.48 1191.15 C 1281.72 1197.15 1317.08 1218.65 1285.08 1233.26 C 1281.05 1235.1 1275.48 1236.65 1271.83 1238.57 C 1271.87 1218.87 1272.05 1209.59 1264.48 1191.15 z" fill="url(#_6geu6c9)" />
  <path transform="translate(0,0)" d="M 754.161 1164.02 C 753.41 1175.95 755.361 1188.92 753.741 1198.97 C 742.609 1194.09 738.672 1192.4 731.804 1182.34 C 734.753 1178.58 749.426 1167.74 754.161 1164.02 z" fill="#E35FD8" />
  <path transform="translate(0,0)" d="M 731.804 1182.34 C 729.485 1163.08 740.354 1159.68 755.81 1151.51 C 755.427 1156.38 755.168 1159.12 754.161 1164.02 C 749.426 1167.74 734.753 1178.58 731.804 1182.34 z" fill="#D77EE4" />
  <path transform="translate(0,0)" d="M 312.838 681.684 C 323.504 671.31 344.914 604.342 354.794 599.052 C 348.858 625.17 333.711 648.504 325.692 673.357 C 315.911 703.673 309.657 736.365 301.842 767.16 L 289.307 816.835 C 287.556 824.016 283.518 832.529 285.572 839.596 C 279.797 862.891 277.014 898.579 266.94 919.805 C 268.157 922.486 268.599 923.349 270.155 925.835 L 269.529 924.696 L 270.393 926.962 C 268.903 928.876 269.524 928.25 267.424 929.552 L 266.46 936.615 L 265.615 936.928 L 264.887 935.607 L 263.224 953.686 L 263 953.043 C 262.237 956.65 261.586 959.725 261.08 963.394 C 263.391 960.474 262.678 961.456 263.354 957.381 C 265.33 959.223 264.73 958.738 266.027 961.334 L 266.17 961.356 L 265.194 959.973 L 266.861 959.056 L 266.996 951.545 L 267.768 951.252 C 271.615 965.823 255.835 992.811 257.077 996.309 L 257.343 995.961 L 259.009 995.437 C 258.77 1002.45 256.852 1018.4 254.582 1024.9 L 253.906 1025.44 L 253.376 1024.76 L 252.988 1025.42 C 253.264 1030.23 252.057 1038.25 248.552 1041.88 C 244.192 1046.41 244.728 1056.48 242.893 1060.47 C 239.701 1067.41 236.519 1114.51 234.574 1117.15 C 227.366 1117.55 218.731 1117.8 211.66 1118.48 C 200.139 1120.15 182.629 1123.23 171.621 1124.15 C 163.781 1126.44 153.825 1128.17 145.532 1130.6 C 141.706 1131.72 124.088 1136.89 121.839 1137.15 C 121.184 1126.78 121.569 1116.84 121.424 1106.5 C 120.08 1010.97 122.918 915.315 121.454 819.816 C 121.14 805.892 120.626 789.738 121.776 775.992 C 124.139 774.615 126.941 772.427 129.212 770.757 C 157.723 739.236 207.936 709.408 248.727 697.604 C 259.131 691.318 295.699 684.188 308.67 681.783 C 315.654 659.754 326.678 618.09 338.529 598.76 C 337.604 606.003 325.376 633.769 322.143 643.161 C 317.683 656.117 314.391 667.392 310.627 680.797 C 311.607 681.299 311.843 681.587 312.838 681.684 z" fill="url(#_6geu6c8)" />
  <path transform="translate(0,0)" d="M 312.838 681.684 C 323.504 671.31 344.914 604.342 354.794 599.052 C 348.858 625.17 333.711 648.504 325.692 673.357 C 315.911 703.673 309.657 736.365 301.842 767.16 L 289.307 816.835 C 287.556 824.016 283.518 832.529 285.572 839.596 C 279.797 862.891 277.014 898.579 266.94 919.805 C 268.157 922.486 268.599 923.349 270.155 925.835 L 269.529 924.696 L 270.393 926.962 C 268.903 928.876 269.524 928.25 267.424 929.552 L 266.46 936.615 L 265.615 936.928 L 264.887 935.607 L 263.224 953.686 L 263 953.043 C 262.237 956.65 261.586 959.725 261.08 963.394 C 263.391 960.474 262.678 961.456 263.354 957.381 C 265.33 959.223 264.73 958.738 266.027 961.334 L 266.17 961.356 L 265.194 959.973 L 266.861 959.056 L 266.996 951.545 L 267.768 951.252 C 271.615 965.823 255.835 992.811 257.077 996.309 L 257.343 995.961 L 259.009 995.437 C 258.77 1002.45 256.852 1018.4 254.582 1024.9 L 253.906 1025.44 L 253.376 1024.76 L 252.988 1025.42 C 253.264 1030.23 252.057 1038.25 248.552 1041.88 C 244.192 1046.41 244.728 1056.48 242.893 1060.47 C 239.701 1067.41 236.519 1114.51 234.574 1117.15 C 227.366 1117.55 218.731 1117.8 211.66 1118.48 C 219.949 1046.7 239.776 972.645 255.666 901.815 C 260.229 886.07 265.09 862.292 268.626 846.187 C 277.806 804.372 286.337 764.08 296.914 722.547 L 306.577 689.806 C 308.319 686.24 308.422 685.749 308.67 681.783 C 315.654 659.754 326.678 618.09 338.529 598.76 C 337.604 606.003 325.376 633.769 322.143 643.161 C 317.683 656.117 314.391 667.392 310.627 680.797 C 311.607 681.299 311.843 681.587 312.838 681.684 z" fill="url(#_6geu6c7)" />
  <path transform="translate(0,0)" d="M 261.08 963.394 C 263.391 960.474 262.678 961.456 263.354 957.381 C 265.33 959.223 264.73 958.738 266.027 961.334 L 266.17 961.356 L 265.194 959.973 L 266.861 959.056 L 266.996 951.545 L 267.768 951.252 C 271.615 965.823 255.835 992.811 257.077 996.309 L 257.343 995.961 L 259.009 995.437 C 258.77 1002.45 256.852 1018.4 254.582 1024.9 L 253.906 1025.44 L 253.376 1024.76 L 252.988 1025.42 C 245.905 1033.42 237.848 1067.32 233.1 1078.55 L 231.906 1078.37 C 231.19 1076.1 231.485 1068.9 232.371 1066.88 C 240.886 1047.43 244.613 1026.35 250.206 1006 C 253.028 995.733 255.818 972.053 261.08 963.394 z" fill="#8E40F8" />
  <path transform="translate(0,0)" d="M 308.67 681.783 C 308.422 685.749 308.319 686.24 306.577 689.806 L 296.914 722.547 C 295.587 716.966 298.216 711.028 299.581 705.406 C 295.418 709.755 301.003 709.531 291.397 714.038 C 285.221 716.936 286.919 718.23 278.412 718.595 L 277.622 719.633 C 279.03 720.164 280.447 720.672 281.873 721.155 C 269.262 724.412 263.482 721.933 251.09 722.339 C 245.089 722.536 224.713 736.543 220.503 734.814 C 211.357 740.452 202.45 749.863 193.791 756.529 C 176.453 769.876 157.785 781.912 142.391 797.569 C 138.049 801.985 130.122 819.33 124.527 821.525 C 122.136 820.716 122.896 821.434 121.454 819.816 C 121.14 805.892 120.626 789.738 121.776 775.992 C 124.139 774.615 126.941 772.427 129.212 770.757 C 157.723 739.236 207.936 709.408 248.727 697.604 C 259.131 691.318 295.699 684.188 308.67 681.783 z" fill="#FC90A6" />
  <path transform="translate(0,0)" d="M 220.503 734.814 C 211.024 732.661 194.267 747.228 190.945 746.526 C 199.236 736.241 226.405 724.725 238.288 717.727 C 250.372 710.61 269.884 700.551 284.141 701.097 C 280.936 700.616 280.775 701.126 278.625 699.353 C 280.627 697.544 282.274 698.33 285.932 698.384 C 292.215 692.369 295.527 691.013 303.57 688.057 L 303.601 687.59 L 304.714 687.079 L 306.577 689.806 L 296.914 722.547 C 295.587 716.966 298.216 711.028 299.581 705.406 C 295.418 709.755 301.003 709.531 291.397 714.038 C 285.221 716.936 286.919 718.23 278.412 718.595 L 277.622 719.633 C 279.03 720.164 280.447 720.672 281.873 721.155 C 269.262 724.412 263.482 721.933 251.09 722.339 C 245.089 722.536 224.713 736.543 220.503 734.814 z" fill="#FA5C7D" />
  <path transform="translate(0,0)" d="M 129.212 770.757 C 157.723 739.236 207.936 709.408 248.727 697.604 C 244.652 703.197 184.644 724.49 174.615 735.376 C 165.684 745.071 159.836 751.506 147.173 755.745 C 142.767 757.135 139.045 768.23 129.212 770.757 z" fill="#FCC1C9" />
  <path transform="translate(0,0)" d="M 171.621 1124.15 C 178.735 1117.62 193.103 1124.28 196.956 1113.53 C 202.432 1098.25 198.641 1075.37 201.764 1061.36 C 207.297 1036.53 219.73 1011.42 227.048 986.967 C 231.115 973.373 244.873 905.223 253.902 900.232 L 255.666 901.815 C 239.776 972.645 219.949 1046.7 211.66 1118.48 C 200.139 1120.15 182.629 1123.23 171.621 1124.15 z" fill="#981280" />
  <path transform="translate(0,0)" d="M 969.824 1360.84 C 980.383 1358.05 993.343 1363.55 1005.61 1361.4 C 1016.56 1359.78 1070.77 1360.17 1083.71 1360.73 L 1083.5 1363.16 C 1078.3 1397.91 1074.45 1432.36 1069.59 1467.08 C 1066.09 1488.54 1062.73 1510.03 1059.5 1531.54 L 1045.24 1629.01 C 1042.69 1646.18 1030.36 1714.62 1033.14 1727.17 C 1017.66 1727.84 1001.07 1727.22 985.413 1727.13 C 963.285 1727.01 940.721 1727.41 918.649 1726.88 C 929.074 1725.76 992.366 1726.56 995.522 1725.14 L 994.775 1723.77 C 981.389 1708.82 971.553 1701.84 954.598 1691.28 C 950.211 1688.55 940.172 1682.3 936.586 1679.06 C 938.118 1675.72 945.533 1593.2 946.235 1582.66 C 947.676 1579.84 954.962 1507.72 954.993 1500.4 C 956.651 1492.53 958.06 1471.75 959.165 1462.96 C 963.396 1429.28 965.641 1394.44 969.824 1360.84 z" fill="url(#_6geu6c6)" />
  <path transform="translate(0,0)" d="M 1005.61 1361.4 C 1016.56 1359.78 1070.77 1360.17 1083.71 1360.73 L 1083.5 1363.16 C 1078.3 1397.91 1074.45 1432.36 1069.59 1467.08 C 1068.52 1463.32 1069.35 1463.99 1066.8 1462.34 L 1063.73 1464.16 C 1065.16 1464.06 1064.84 1463.78 1066.41 1462.4 L 1063.95 1464.2 C 1055.26 1449.83 1040.69 1423.55 1025.6 1415.93 C 1015.54 1396.69 1008.12 1390.17 1033.24 1380.27 C 1050.74 1373.37 1062.6 1372.45 1080.44 1368.5 C 1081.35 1365.82 1081.29 1367.23 1079.99 1364.15 C 1072.28 1358.78 1020.5 1365.44 1006.33 1361.61 C 1006.09 1361.55 1005.85 1361.47 1005.61 1361.4 z" fill="#FA5C7D" />
  <path transform="translate(0,0)" d="M 861.809 1321.86 C 893.334 1328.06 925.899 1332.52 957.808 1336.5 C 962.429 1337.08 967.375 1337.27 971.909 1338.14 C 971.708 1343.08 971.532 1351.35 970.32 1356 L 969.954 1357.32 L 969.824 1360.84 C 965.641 1394.44 963.396 1429.28 959.165 1462.96 C 958.06 1471.75 956.651 1492.53 954.993 1500.4 C 954.962 1507.72 947.676 1579.84 946.235 1582.66 C 945.533 1593.2 938.118 1675.72 936.586 1679.06 L 932.084 1677.46 C 921.055 1669.25 858.915 1646.4 842.644 1640.49 C 844.669 1619.3 844.906 1587.43 845.776 1565.34 C 846.467 1550.9 847.19 1532.59 849.017 1518.48 C 848.65 1505.89 851.216 1476.88 852.026 1462.94 L 859.901 1341.78 L 860.147 1332.97 L 861.809 1321.86 z" fill="#D77EE4" />
  <path transform="translate(0,0)" d="M 849.017 1518.48 C 850.803 1524.41 849.158 1540.99 848.194 1547.43 C 873.038 1566.26 900.073 1579.97 920.993 1603.13 C 927.077 1609.87 930.288 1619.3 938.492 1623.32 L 940.238 1622.76 C 941.896 1611.82 942.645 1591.45 946.235 1582.66 C 945.533 1593.2 938.118 1675.72 936.586 1679.06 L 932.084 1677.46 C 921.055 1669.25 858.915 1646.4 842.644 1640.49 C 844.669 1619.3 844.906 1587.43 845.776 1565.34 C 846.467 1550.9 847.19 1532.59 849.017 1518.48 z" fill="url(#_6geu6c5)" />
  <path transform="translate(0,0)" d="M 966.151 1359.53 C 962.718 1358.73 956.393 1357.91 953.985 1356.28 C 959.985 1356.23 964.007 1356.68 969.954 1357.32 L 969.824 1360.84 C 965.641 1394.44 963.396 1429.28 959.165 1462.96 C 958.06 1471.75 956.651 1492.53 954.993 1500.4 C 951.246 1491.74 958.347 1484.03 954.797 1478.29 C 950.221 1477.72 937.759 1464.43 931.907 1460.1 C 915.582 1448 872.677 1385.82 891.157 1366.93 C 903.754 1354.06 945.645 1359.59 966.151 1359.53 z" fill="#F5B2DE" />
  <path transform="translate(0,0)" d="M 861.809 1321.86 C 893.334 1328.06 925.899 1332.52 957.808 1336.5 C 962.429 1337.08 967.375 1337.27 971.909 1338.14 C 971.708 1343.08 971.532 1351.35 970.32 1356 L 969.847 1354.57 C 969.307 1354.15 867.734 1341.68 859.901 1341.78 L 860.147 1332.97 L 861.809 1321.86 z" fill="url(#_6geu6c4)" />
  <path transform="translate(0,0)" d="M 611.998 1598.13 C 638.22 1598.09 676.166 1601.02 701.916 1606.16 L 702.029 1607.23 C 718.262 1610.98 742.774 1612.58 757.851 1617.9 C 768.498 1621.78 791.071 1626.45 802.973 1629.51 C 815.177 1632.64 831.088 1637.87 842.644 1640.49 C 858.915 1646.4 921.055 1669.25 932.084 1677.46 L 936.586 1679.06 C 940.172 1682.3 950.211 1688.55 954.598 1691.28 C 971.553 1701.84 981.389 1708.82 994.775 1723.77 L 995.522 1725.14 C 992.366 1726.56 929.074 1725.76 918.649 1726.88 C 821.907 1728.35 709.668 1729.14 613.768 1724.17 C 614.332 1702.05 613.302 1679.09 614.158 1657.09 L 611.998 1598.13 z" fill="url(#_6geu6c3)" />
  <path transform="translate(0,0)" d="M 611.998 1598.13 C 638.22 1598.09 676.166 1601.02 701.916 1606.16 L 702.029 1607.23 C 697.766 1608.16 690.651 1606.86 686.471 1606.19 C 663.413 1602.48 638.372 1598.36 623.101 1620.93 C 609.518 1639.5 618.137 1641.53 614.158 1657.09 L 611.998 1598.13 z" fill="#981280" />
  <path transform="translate(0,0)" d="M 976.305 1708.25 C 959.971 1707.14 946.484 1705.58 935.083 1692.64 C 931.229 1688.27 931.007 1684.69 926.139 1681.12 L 926.05 1679.38 L 927.976 1677.86 L 930.608 1678.23 L 932.084 1677.46 L 936.586 1679.06 C 940.172 1682.3 950.211 1688.55 954.598 1691.28 C 971.553 1701.84 981.389 1708.82 994.775 1723.77 C 990.79 1722.01 980.704 1712.01 976.305 1708.25 z" fill="#FA5C7D" />
  <path transform="translate(0,0)" d="M 772.433 1300.01 C 785.517 1302.91 799.205 1307.99 812.268 1310.94 C 820.214 1313.03 828.168 1315.23 836.23 1316.79 C 844.589 1318.5 853.431 1320.48 861.809 1321.86 L 860.147 1332.97 L 859.901 1341.78 L 852.026 1462.94 C 851.216 1476.88 848.65 1505.89 849.017 1518.48 C 847.19 1532.59 846.467 1550.9 845.776 1565.34 C 844.906 1587.43 844.669 1619.3 842.644 1640.49 C 831.088 1637.87 815.177 1632.64 802.973 1629.51 C 791.071 1626.45 768.498 1621.78 757.851 1617.9 C 758.903 1581.37 757.419 1544.16 758.165 1507.52 C 758.579 1487.24 758.756 1465.94 758.168 1445.68 C 769.586 1410.98 781.13 1362.33 775.075 1325.48 C 774.818 1318.29 774.021 1306.8 772.433 1300.01 z" fill="#981280" />
  <path transform="translate(0,0)" d="M 860.147 1332.97 L 859.901 1341.78 L 852.026 1462.94 C 851.216 1476.88 848.65 1505.89 849.017 1518.48 C 847.19 1532.59 846.467 1550.9 845.776 1565.34 C 843.045 1548.95 846.942 1533.29 846.721 1516.87 C 845.266 1511.99 839.158 1506.97 836.988 1502.43 C 820.591 1469.29 816.085 1429.11 813.578 1393.99 C 810.893 1356.37 796.915 1342.05 843.514 1338.26 C 847.078 1337.98 853.422 1336.48 857.448 1336.04 L 858.355 1335.94 L 860.147 1332.97 z" fill="#CC2D75" />
  <path transform="translate(0,0)" d="M 861.199 1081.13 C 862.521 1062.6 864.806 1050.73 874.006 1034.34 C 896.883 993.572 954.357 980.335 993.513 1005.36 C 1015.85 1019.63 1025.77 1036.23 1031.81 1061.58 C 1030.55 1065.4 1024.55 1070.49 1021.27 1073.83 C 1014.82 1080.41 1012.57 1085.77 1007.69 1092.17 C 1003.83 1102.4 1000.49 1114.03 1000.78 1125.09 C 1000.83 1126.88 1000.8 1126.82 1000.22 1128.58 C 971.193 1124.38 941.585 1128.77 920.528 1151.08 C 919.768 1149.82 916.102 1138.92 915.399 1136.79 C 908.919 1117.11 902.504 1109.1 887.339 1095.16 C 878.522 1088.79 871.125 1085.42 861.199 1081.13 z" fill="url(#_6geu6c2)" />
  <path transform="translate(0,0)" d="M 887.339 1095.16 C 890.148 1096.07 892.107 1098.12 895.532 1097.97 C 922.112 1096.81 948.673 1097.33 975.263 1097.21 C 983.787 1097.18 1001.38 1090.26 1007.69 1092.17 C 1003.83 1102.4 1000.49 1114.03 1000.78 1125.09 C 1000.83 1126.88 1000.8 1126.82 1000.22 1128.58 C 971.193 1124.38 941.585 1128.77 920.528 1151.08 C 919.768 1149.82 916.102 1138.92 915.399 1136.79 C 908.919 1117.11 902.504 1109.1 887.339 1095.16 z" fill="url(#_6geu6c1)" />
  <path transform="translate(0,0)" d="M 475.088 403.697 C 485.501 401.774 546.183 342.503 577.281 338.871 L 577.224 339.769 C 550.15 354.727 495.683 387.795 475.114 410.263 L 474.024 411.476 C 492.994 399.997 537.711 364.985 556.165 359.207 C 548.199 367.394 532.599 371.271 529.687 384.857 C 534.044 383.299 543.938 376.957 549.049 374.654 C 564.98 367.477 581.253 358.641 597.215 351.778 C 595.207 353.377 594.257 354.075 592.47 355.958 L 592.849 355.309 L 593.183 356.493 C 599.663 354.88 607.232 351.508 612.417 357.031 C 610.364 358.247 608.797 357.694 606.359 357.367 C 606.122 357.693 605.884 358.019 605.647 358.344 C 600.131 369.179 559.858 382.152 555.23 386.752 C 538.539 402.157 519.998 413.074 502.297 426.905 C 494.553 432.955 488.553 428.253 488.271 441.39 L 485.704 444.738 C 479.974 450.248 442.667 486.236 439.167 487.163 C 434.225 495.039 418.807 508.879 417.546 514.378 C 414.824 526.252 408.753 529.196 404.558 538.479 C 399.225 550.284 392.224 552.796 387.569 562.811 L 389.301 563.345 C 379.153 576.362 374.128 589.055 367.592 604.004 C 365.134 609.626 359.856 614.775 360.024 620.8 C 360.066 623.344 360.112 624.49 358.587 626.646 L 356.954 626.108 L 355.884 626.622 C 354.059 632.031 353.079 635.534 351.803 641.099 L 351.876 638.385 C 351.33 641.032 350.471 645.583 349.552 648.03 C 347.798 652.702 340.363 657.475 342.5 662.767 L 343.826 663.645 C 339.49 666.797 337.342 669.412 335.161 674.341 L 333.615 671.591 L 332.507 673.198 C 333.191 676.328 335.39 684.06 334.568 686.651 C 333.921 684.64 333.372 682.92 332.619 680.932 C 331.444 687.76 329.677 701.179 326.962 707.093 C 321.716 718.518 322.643 731.703 319.946 744.059 C 317.105 757.073 313.881 769.744 311.357 782.68 L 308.995 782.099 L 307.774 784.76 L 309.443 786.026 C 308.622 793.76 300.419 792.21 306.343 799.982 C 302.927 803.252 303.667 801.606 303.267 805.938 L 304.119 806.842 L 305.977 805.255 C 306.316 809.528 297.583 822.197 296.091 828.079 C 294.9 832.77 295.866 836.182 294.441 839.821 C 292.87 836.72 295.066 834.488 294.78 831.704 C 293.901 823.175 290.296 823.156 296.13 815.153 L 296.205 813.477 L 294.864 813.501 C 290.956 818.2 286.801 833.456 285.572 839.596 C 283.518 832.529 287.556 824.016 289.307 816.835 L 301.842 767.16 C 309.657 736.365 315.911 703.673 325.692 673.357 C 333.711 648.504 348.858 625.17 354.794 599.052 C 344.914 604.342 323.504 671.31 312.838 681.684 C 311.843 681.587 311.607 681.299 310.627 680.797 C 314.391 667.392 317.683 656.117 322.143 643.161 C 325.376 633.769 337.604 606.003 338.529 598.76 C 339.797 593.888 348.381 574.744 350.944 569.451 C 378.803 511.923 425.769 444.76 475.088 403.697 z" fill="#BB5BF1" />
  <path transform="translate(0,0)" d="M 475.088 403.697 C 485.501 401.774 546.183 342.503 577.281 338.871 L 577.224 339.769 C 550.15 354.727 495.683 387.795 475.114 410.263 L 474.024 411.476 C 492.994 399.997 537.711 364.985 556.165 359.207 C 548.199 367.394 532.599 371.271 529.687 384.857 C 515.117 394.635 499.132 403.583 485.085 413.899 C 462.75 430.304 445.138 452.882 424.213 471.063 C 404.177 489.264 389.402 519.773 374.647 542.536 C 369.073 551.136 363.275 559.179 358.351 568.114 C 343.17 599.434 330.069 632.24 318.243 664.968 C 316.205 670.61 314.091 675.853 312.838 681.684 C 311.843 681.587 311.607 681.299 310.627 680.797 C 314.391 667.392 317.683 656.117 322.143 643.161 C 325.376 633.769 337.604 606.003 338.529 598.76 C 339.797 593.888 348.381 574.744 350.944 569.451 C 378.803 511.923 425.769 444.76 475.088 403.697 z" fill="#D77EE4" />
  <path transform="translate(0,0)" d="M 439.167 487.163 C 433.255 487.308 410.719 515.334 403.827 519.082 L 403.537 517.985 C 409.819 510.862 415.248 501.069 423.381 492.124 C 455.956 456.296 484.922 427.805 527.144 402.979 C 536.212 397.647 545.343 390.515 555.23 386.752 C 538.539 402.157 519.998 413.074 502.297 426.905 C 494.553 432.955 488.553 428.253 488.271 441.39 L 485.704 444.738 C 479.974 450.248 442.667 486.236 439.167 487.163 z" fill="#8E40F8" />
  <path transform="translate(0,0)" d="M 775.075 1325.48 C 774.936 1329.22 774.689 1332.58 774.358 1336.3 C 774.105 1331.4 774.087 1325.02 772.106 1320.61 C 767.279 1309.86 760.626 1299.01 755.702 1288.38 C 734.254 1242.07 703.961 1203.31 667.37 1168.08 C 661.541 1162.47 657.109 1153.72 651.26 1147.99 C 646.41 1143.39 639.818 1139.39 634.646 1135.01 C 626.45 1128.06 618.741 1120.64 610.634 1113.6 C 602.018 1106.24 592.617 1099.81 584.625 1091.61 C 577.162 1083.95 574.536 1073.59 570.435 1063.99 C 568.309 1062.89 566.487 1061.94 564.969 1061.16 C 608.249 1069.36 677.531 1119.38 704.983 1153.93 C 705.4 1157.31 712.279 1162.27 715.724 1167.12 C 727.3 1183.42 738.173 1197.54 746.632 1215.81 C 749.05 1230.08 756.482 1229.37 767.097 1238.28 L 766.261 1240.24 C 762.576 1240.94 761.928 1239.79 758.914 1237.3 L 757.749 1237.13 C 759.042 1244.86 769.91 1294.82 772.433 1300.01 C 774.021 1306.8 774.818 1318.29 775.075 1325.48 z" fill="#BB5BF1" />
  <path transform="translate(0,0)" d="M 694.356 1522.97 C 726.695 1496.65 734.226 1478.18 758.168 1445.68 C 758.756 1465.94 758.579 1487.24 758.165 1507.52 C 757.419 1544.16 758.903 1581.37 757.851 1617.9 C 742.774 1612.58 718.262 1610.98 702.029 1607.23 L 701.916 1606.16 C 701.54 1596.33 700.861 1525.28 697.631 1522.47 L 695.207 1523.75 L 694.356 1522.97 z" fill="url(#_6geu6c0)" />
  <path transform="translate(0,0)" d="M 695.207 1523.75 L 697.631 1522.47 C 700.861 1525.28 701.54 1596.33 701.916 1606.16 C 676.166 1601.02 638.22 1598.09 611.998 1598.13 C 611.392 1585.53 610.717 1572.93 609.973 1560.34 C 612.709 1562.13 613.167 1562.9 616.898 1562.46 C 637.266 1560.06 683.599 1538.56 695.207 1523.75 z" fill="#260676" />
  <path transform="translate(0,0)" d="M 574.392 1305.43 L 576.536 1305.41 C 587.922 1332.7 594.31 1373.21 598.971 1402.67 C 599.682 1407.16 600.977 1425.15 601.589 1427.3 C 605.239 1440.13 608.808 1453.61 611.795 1466.85 C 613.054 1472.43 609.65 1485.41 610.841 1489.5 C 612.897 1496.57 615.708 1494.81 619.443 1505.54 C 621.977 1512.61 623.996 1519.85 625.482 1527.21 C 626.355 1531.46 629.808 1554.58 631.123 1556.21 C 635.61 1556.94 640.912 1553.88 645.219 1552.01 C 662.202 1544.66 678.516 1535.86 692.651 1523.76 C 693.43 1523.1 693.304 1523.27 694.356 1522.97 L 695.207 1523.75 C 683.599 1538.56 637.266 1560.06 616.898 1562.46 C 613.167 1562.9 612.709 1562.13 609.973 1560.34 C 607.852 1528.54 605.438 1496.76 602.732 1465 C 601.092 1445.95 598.708 1418.08 595.023 1399.76 C 595.078 1375.57 580.321 1329.15 574.392 1305.43 z" fill="#3911AC" />
  <path transform="translate(0,0)" d="M 1131.91 948.291 C 1133.59 953.332 1133.04 967.284 1134.03 973.752 C 1140.22 1014.25 1161.17 1047.98 1191.57 1074.85 C 1196.79 1079.46 1214.29 1092.51 1215.22 1098.59 C 1183.87 1088.8 1176.48 1095 1148.66 1103.47 L 1147.47 1102.91 C 1145.39 1085.54 1131.78 1068.91 1116.84 1060.54 C 1112.59 1057.57 1105.76 1054.55 1100.91 1052.22 L 1100.96 1051.45 L 1101.87 1050.87 C 1117.88 1056.74 1134 1067.17 1141.97 1082.33 C 1144.17 1086.5 1149.69 1095.88 1152.48 1099.04 C 1154.64 1099.37 1179.37 1092.19 1181.41 1089.39 C 1179.82 1086.36 1169.93 1081.51 1165.08 1076.22 C 1152.12 1062.06 1160.63 1054.49 1156.34 1038.71 C 1154.55 1032.14 1147.73 1022.56 1144.98 1016.09 C 1135.31 993.334 1131.25 972.627 1131.91 948.291 z" fill="#3911AC" />
  <path transform="translate(0,0)" d="M 764.193 604.147 C 788.037 602.081 804.405 610.984 821.281 627.414 C 873.966 678.706 901.313 851.57 809.941 875.815 C 754.13 886.144 719.892 817.593 709.353 772.94 C 695.979 716.276 693.35 621.817 764.193 604.147 z" fill="#FEFEFE" />
</svg>
